<svg width="496" height="496" viewBox="0 0 496 496" fill="none" xmlns="http://www.w3.org/2000/svg">
<path d="M174.63 452.33C174.63 452.33 196.33 424.85 182.17 400.33C162.77 366.75 267.33 368 267.33 368" stroke="#2374E1" stroke-width="5" stroke-linecap="round" stroke-linejoin="round"/>
<path d="M421.9 336.46H418.96V339.59H421.9V336.46ZM428.39 340.17H411.77V350.76H428.39V340.17Z" fill="white"/>
<path d="M463.24 296.21H417.71V304.21L418.91 304.16C421.49 304.16 427.22 306.39 431.68 308.16C436.53 310.1 442.11 311.55 446.98 313.51C450.11 314.76 457.39 317.62 458.37 320.85C460.37 327.3 463.78 361.5 464.37 368.11C464.47 369.23 464.24 373.2 463.71 374.19C462.71 375.96 460.55 378.29 455.5 379.26C466.19 379.26 475 379.26 475.09 379.35V308.07C475.09 304.926 473.842 301.911 471.62 299.687C469.398 297.463 466.384 296.213 463.24 296.21Z" fill="#2374E1"/>
<path d="M464.38 368.15C463.78 361.54 460.33 327.34 458.38 320.89C457.38 317.66 450.12 314.8 446.99 313.55C442.12 311.55 436.54 310.14 431.69 308.2C427.23 306.42 421.5 304.2 418.92 304.2L417.05 304.26L395.17 305.26C391.88 306.84 375.59 313.26 369.12 316.15C365.44 317.78 363.46 321.96 362.64 325.9C359.8 339.5 353.15 371.43 351.64 375.18L406.16 375.67L406.67 379.55L451.29 379.72C452.706 379.687 454.117 379.54 455.51 379.28C460.56 378.28 462.76 375.98 463.72 374.21C464.25 373.24 464.48 369.27 464.38 368.15Z" fill="white"/>
<path d="M407.52 303.81C403.106 305.72 398.115 305.802 393.64 304.04L393.85 312.35L403.73 326.58L417.14 311.74L417.81 288.94C417.326 289.21 416.821 289.441 416.3 289.63C416.3 289.63 412.75 301.53 407.52 303.81Z" fill="white"/>
<path d="M388.34 367.38C389.5 365.19 394.97 353.66 396.83 349.73C397.1 349.17 398.04 347.28 396.66 346.52C395.57 345.91 394.93 346.52 394.21 347.81C393.28 349.48 386.26 364.64 383.89 369.81L383.62 372.2C383.606 372.333 383.635 372.468 383.704 372.583C383.772 372.698 383.876 372.788 384 372.84L384.13 372.9C384.234 372.95 384.351 372.967 384.465 372.95C384.579 372.932 384.686 372.88 384.77 372.8L386.77 370.92L388.34 367.38Z" fill="#FFB41E"/>
<path d="M383.14 375L383.57 374.12" stroke="#FFB41E" stroke-width="1.5" stroke-linecap="round" stroke-linejoin="round"/>
<path d="M396.75 347.88C396.631 348.021 396.467 348.118 396.285 348.154C396.103 348.191 395.915 348.164 395.75 348.08C395.549 347.984 395.393 347.813 395.318 347.603C395.281 347.499 395.264 347.389 395.27 347.278C395.275 347.168 395.302 347.06 395.35 346.96L395.99 345.64C396.05 345.474 396.161 345.332 396.308 345.234C396.454 345.135 396.627 345.085 396.803 345.091C396.949 345.095 397.092 345.137 397.217 345.214C397.342 345.29 397.445 345.397 397.515 345.526C397.586 345.654 397.621 345.799 397.619 345.945C397.616 346.091 397.575 346.234 397.5 346.36L396.86 347.69C396.835 347.759 396.798 347.824 396.75 347.88Z" fill="#FFB41E"/>
<path d="M387.01 366.05L387.87 364.2" stroke="#2B1B9E" stroke-width="1.5" stroke-linecap="round" stroke-linejoin="round"/>
<path d="M382 369.46C382 369.46 392 363.26 397.24 364.02C402.48 364.78 410.24 366.29 410.24 366.29L410.29 376.75C407.509 377.289 404.697 377.65 401.87 377.83C397.74 377.68 384.87 375.25 384.87 375.25L382 369.46Z" fill="white"/>
<path d="M419.48 304.71C422.06 304.71 425.84 306.16 430.3 307.94C435.15 309.87 448.3 313.74 453.15 315.7C454.687 316.317 456.043 317.313 457.092 318.594C458.141 319.876 458.849 321.402 459.15 323.03C459.65 325.79 460.27 329.03 460.72 330.97M417.66 290.8C417.47 292.48 417.25 303.1 417.26 308.36L417.66 290.8ZM386.64 309C383.35 310.58 376.45 312.61 369.98 315.48C368.172 316.282 366.58 317.503 365.337 319.042C364.093 320.581 363.234 322.393 362.83 324.33C359.99 337.93 353.34 369.4 351.83 373.16L386.64 309ZM394 307.14C393.92 307.58 393.92 308.29 393.82 312.35C393.75 312.908 393.486 313.423 393.075 313.807C392.664 314.191 392.131 314.418 391.57 314.45C390.22 314.45 388.83 313.85 389.4 312.45C389.8 311.45 391.92 311.55 393.18 312.37C394.44 313.19 401.9 324.47 401.9 324.47L394 307.14ZM383.6 314.87L394.11 333.58L401.22 327.08L383.6 314.87ZM426.57 314.87L414.21 333.58L407.1 327.08L426.57 314.87Z" stroke="#2B1B9E" stroke-width="1.5" stroke-linecap="round" stroke-linejoin="round"/>
<path d="M404.16 349.58C404.44 348.52 403.69 332.74 403.56 329.58C403.547 329.246 403.563 328.911 403.61 328.58C403.76 327.3 404.351 326.112 405.28 325.22C408.38 322.33 418.09 310.96 420.28 308.76" stroke="#2B1B9E" stroke-width="1.5" stroke-linecap="round" stroke-linejoin="round"/>
<path d="M423.26 279.13C423.26 278.95 423.21 278.77 423.18 278.59C422.74 277.72 421.74 275.93 421.02 275.59C420.3 275.25 417.74 276.13 417.74 276.13C416.95 275.78 412.65 275.25 410.47 273.13C408.47 271.22 410.25 262.21 404.79 262.68C402.23 262.89 396.32 267.37 390.5 265.75C390.26 265.69 386.98 273.88 380.67 273.41C380.5 273.41 380.32 273.41 380.13 273.34C381.84 281.58 385.34 297.11 387.87 299.93C389.458 301.718 391.431 303.123 393.64 304.04C398.115 305.802 403.106 305.72 407.52 303.81C412.75 301.53 416.3 289.63 416.3 289.63C416.821 289.441 417.326 289.21 417.81 288.94C419.613 288.059 421.102 286.646 422.077 284.892C423.052 283.137 423.464 281.126 423.26 279.13Z" fill="white"/>
<path d="M426.43 257.11C423.43 254.32 429.56 252.66 427.57 247.41C426.5 244.61 422.14 240.94 415.85 241.79C411.66 242.35 405.63 241.94 403.03 240.04C400.88 238.47 399.75 235.2 396.17 234.61C393.55 234.18 389.11 234.98 388.03 238.35C386.42 243.35 384.52 243.06 381.36 242.71C379.74 242.54 374.43 240.65 370.93 246.59C367.88 251.78 370.87 254.65 371.56 255.47C374 258.37 368.93 259.16 370.02 265.85C370.64 269.59 375.59 274.01 380.67 273.41C386.96 272.67 390.26 265.69 390.5 265.75C396.32 267.37 402.23 262.89 404.79 262.68C410.25 262.21 408.54 269.84 410.12 272.47C410.58 273.23 410.62 274.87 418.06 276.23C418.06 276.23 420.23 275.34 421.06 275.62C423.29 276.42 423.46 279.07 423.46 279.07C423.71 275.87 429.97 272.02 431.07 266.51C431.64 263.45 430.33 260.74 426.43 257.11Z" fill="#2374E1"/>
<path d="M387.44 284.8C386.84 283.07 386.84 280.51 387.44 279.61C387.544 279.467 387.68 279.351 387.837 279.271C387.995 279.191 388.169 279.15 388.345 279.15C388.522 279.15 388.695 279.192 388.853 279.272C389.01 279.352 389.146 279.468 389.25 279.61C389.728 280.365 389.988 281.237 390 282.13C390.267 283.202 390.232 284.327 389.9 285.38C389.802 285.532 389.672 285.661 389.518 285.756C389.364 285.851 389.19 285.91 389.01 285.93C388.658 285.951 388.31 285.85 388.024 285.645C387.738 285.439 387.532 285.14 387.44 284.8ZM399.72 283.76C399.23 282 399.38 279.45 400.05 278.58C400.164 278.446 400.308 278.34 400.471 278.272C400.633 278.202 400.81 278.172 400.986 278.184C401.162 278.195 401.333 278.249 401.484 278.339C401.636 278.428 401.764 278.552 401.86 278.7C402.293 279.481 402.501 280.368 402.46 281.26C402.662 282.35 402.558 283.475 402.16 284.51C402.054 284.656 401.916 284.776 401.757 284.861C401.597 284.946 401.421 284.993 401.24 285C400.882 285.003 400.534 284.88 400.257 284.654C399.979 284.428 399.789 284.111 399.72 283.76Z" fill="#2B1B9E"/>
<path d="M394.46 284.06C394.46 285.58 394.25 287.06 394.22 288.54C394.22 289.23 394.28 290.09 394.92 290.37C395.554 290.485 396.196 290.545 396.84 290.55" stroke="#2B1B9E" stroke-width="1.5" stroke-linecap="round" stroke-linejoin="round"/>
<path d="M398.86 276C399.47 275.547 400.217 275.32 400.976 275.357C401.734 275.393 402.456 275.691 403.02 276.2M380.42 273.79C383.02 280.72 382.87 290.79 385.91 296.79C388.67 302.19 393.61 306.53 401.3 305.68C408.55 304.87 413.03 300.54 414.86 293.36L380.42 273.79Z" stroke="#2B1B9E" stroke-width="1.5" stroke-linecap="round" stroke-linejoin="round"/>
<path d="M439.81 333.92C439.81 334.55 441.07 361.92 441.07 361.92L410.43 365.63C410.43 365.63 409.18 372.87 410.43 377.4M385.79 277.35C386.329 276.837 387.033 276.532 387.776 276.488C388.519 276.444 389.254 276.664 389.85 277.11L385.79 277.35ZM393.16 293.88C394.7 294.752 396.454 295.173 398.223 295.095C399.991 295.018 401.702 294.444 403.16 293.44L393.16 293.88ZM417.52 276.62C417.52 276.62 420.24 274.19 422.25 276.94C424.26 279.69 423.13 287.36 417.74 287.94L417.52 276.62ZM374.71 271.39C379.71 276.08 386.99 270.54 388.79 268.39C390.59 266.24 391.74 264.46 391.23 261.69C390.91 259.98 389.55 258.56 388.54 260.17C387.89 261.17 388.54 263.69 389.43 264.54C394.56 269.4 404.43 260.54 407.86 263.54C410.66 266 406.15 274.02 415.53 275.31L374.71 271.39ZM407.43 241.34C409.48 242 411.7 241.73 413.85 241.59C417.28 241.37 420.91 241.59 423.85 243.32C426.79 245.05 428.79 248.85 427.55 252.06C427.03 253.4 425.99 254.67 426.21 256.06C426.43 257.45 427.83 258.37 428.82 259.43C429.635 260.368 430.225 261.48 430.544 262.682C430.862 263.883 430.902 265.141 430.66 266.36C430.149 268.806 428.895 271.034 427.07 272.74C425.968 273.663 424.963 274.695 424.07 275.82L407.43 241.34ZM372.35 372.22C372.35 372.22 373.61 336.54 372.85 334.51L372.35 372.22ZM461.75 336L464 363.25C464.228 365.666 463.911 368.103 463.07 370.38C462.37 372.24 460.14 372.52 459.61 370.7C458.98 368.51 462.9 368.11 464.13 369.05C465.77 370.32 464.61 374.98 462.59 375.93L461.75 336Z" stroke="#2B1B9E" stroke-width="1.5" stroke-linecap="round" stroke-linejoin="round"/>
<path d="M423.28 295.45H463.28C464.837 295.45 466.379 295.757 467.817 296.353C469.256 296.949 470.562 297.823 471.663 298.924C472.763 300.026 473.636 301.333 474.231 302.772C474.826 304.211 475.131 305.753 475.13 307.31V365.89M383 368.8C385.54 367.1 392.11 364.47 394.39 364.25C398.39 363.87 408.58 365.83 410.39 366.46L383 368.8ZM382.66 371.9C382.66 371.9 390.97 368.34 393.44 368.72L382.66 371.9ZM384.66 373.78L394.53 371.97L384.66 373.78Z" stroke="#2B1B9E" stroke-width="1.5" stroke-linecap="round" stroke-linejoin="round"/>
<path d="M371.74 255.86C370.498 254.409 369.799 252.572 369.76 250.663C369.722 248.753 370.347 246.89 371.53 245.39C372.843 243.681 374.775 242.557 376.91 242.26C378.79 242.05 381.48 242.26 383.22 244.32C383.4 244.504 383.519 244.738 383.563 244.991C383.607 245.244 383.572 245.505 383.464 245.738C383.354 245.971 383.177 246.165 382.955 246.294C382.732 246.423 382.476 246.481 382.22 246.46C380.5 246.25 381.36 243.64 381.82 243.17C382.312 242.735 382.954 242.509 383.61 242.54C385.97 242.43 388.22 239.76 388.23 238.82M466.62 301.74C467.461 302.272 468.163 302.997 468.669 303.854C469.175 304.711 469.47 305.676 469.53 306.67V373.23L466.62 301.74Z" stroke="#2B1B9E" stroke-width="1.5" stroke-linecap="round" stroke-linejoin="round"/>
<path d="M429.91 342.17H413.82C413.305 342.17 412.812 342.374 412.448 342.738C412.084 343.102 411.88 343.595 411.88 344.11V355.72C411.88 356.235 412.084 356.728 412.448 357.092C412.812 357.456 413.305 357.66 413.82 357.66H429.91C430.424 357.66 430.918 357.456 431.282 357.092C431.645 356.728 431.85 356.235 431.85 355.72V344.11C431.85 343.595 431.645 343.102 431.282 342.738C430.918 342.374 430.424 342.17 429.91 342.17Z" fill="#2374E1"/>
<path d="M425.8 344.77C424.999 344.338 424.081 344.174 423.18 344.3C420.8 344.6 419.51 346.54 419.36 350.07H421C421.07 348.29 421.45 347.07 422.16 346.48C422.423 346.259 422.728 346.096 423.056 345.999C423.385 345.903 423.731 345.876 424.07 345.92C424.38 345.938 424.681 346.034 424.945 346.198C425.208 346.362 425.427 346.59 425.58 346.86C425.74 347.142 425.83 347.459 425.84 347.783C425.85 348.107 425.782 348.428 425.64 348.72C424.92 350.21 423.18 350.44 421.57 350.47H418.7C418.176 350.458 417.657 350.572 417.187 350.804C416.717 351.035 416.31 351.377 416 351.8C415.758 352.251 415.653 352.764 415.699 353.274C415.745 353.784 415.941 354.27 416.26 354.67C416.501 354.945 416.797 355.165 417.13 355.316C417.464 355.466 417.825 355.542 418.19 355.54C418.508 355.538 418.822 355.48 419.12 355.37C419.691 355.132 420.178 354.729 420.518 354.212C420.859 353.695 421.037 353.089 421.03 352.47H419.36C419.29 352.94 419.04 354 418.07 353.88C417.926 353.862 417.789 353.806 417.673 353.719C417.557 353.631 417.467 353.514 417.41 353.38C417.347 353.258 417.317 353.121 417.326 352.983C417.335 352.845 417.381 352.713 417.46 352.6C417.68 352.27 418.21 352.1 419.09 352.07H421.71C422.855 352.097 423.992 351.886 425.05 351.45C425.916 351.063 426.637 350.412 427.11 349.59C427.578 348.76 427.7 347.779 427.45 346.86C427.337 346.421 427.135 346.01 426.859 345.651C426.582 345.291 426.236 344.992 425.84 344.77" fill="white"/>
<path d="M416.93 366.62C416.93 366.62 414.24 372.44 416.74 377.81M420.22 341.71V339.32C420.233 338.963 420.384 338.626 420.642 338.379C420.9 338.133 421.243 337.997 421.6 338H422.37C422.735 337.998 423.086 338.141 423.345 338.398C423.473 338.525 423.575 338.677 423.645 338.843C423.714 339.01 423.75 339.189 423.75 339.37V341.76L420.22 341.71ZM414.16 342.17H429.84H414.16Z" stroke="#2B1B9E" stroke-width="1.5" stroke-linecap="round" stroke-linejoin="round"/>
<path d="M263.77 350H221.26C219.961 350 218.714 349.484 217.796 348.565C216.877 347.646 216.36 346.4 216.36 345.1V253.62C216.36 252.32 216.877 251.074 217.796 250.155C218.714 249.236 219.961 248.72 221.26 248.72H341C342.3 248.72 343.546 249.236 344.465 250.155C345.384 251.074 345.9 252.32 345.9 253.62V345.05C345.908 345.698 345.786 346.341 345.543 346.941C345.3 347.542 344.941 348.089 344.485 348.549C344.029 349.009 343.486 349.375 342.888 349.624C342.29 349.873 341.648 350.001 341 350H305.79" fill="#EFF8FE"/>
<path d="M290.76 379.48H255.58C255.119 379.48 254.663 379.384 254.241 379.199C253.819 379.014 253.439 378.743 253.127 378.404C252.815 378.065 252.576 377.664 252.427 377.228C252.278 376.792 252.221 376.329 252.26 375.87L256.4 326.2C256.479 324.999 257.011 323.873 257.89 323.05C258.768 322.228 259.927 321.77 261.13 321.77H283.91C285.091 321.773 286.228 322.216 287.099 323.013C287.97 323.811 288.513 324.904 288.62 326.08L294.07 375.79C294.121 376.255 294.073 376.725 293.929 377.17C293.786 377.616 293.551 378.026 293.239 378.374C292.927 378.722 292.544 379.001 292.117 379.191C291.69 379.381 291.228 379.48 290.76 379.48Z" fill="#EFF8FE"/>
<path d="M404.65 375.38H327.33C327.069 375.38 326.81 375.431 326.568 375.531C326.327 375.632 326.107 375.778 325.923 375.963C325.738 376.148 325.591 376.367 325.491 376.608C325.391 376.85 325.34 377.109 325.34 377.37V377.57C325.34 378.098 325.55 378.604 325.923 378.977C326.296 379.35 326.802 379.56 327.33 379.56H404.65C405.178 379.56 405.684 379.35 406.057 378.977C406.43 378.604 406.64 378.098 406.64 377.57V377.37C406.64 377.109 406.588 376.85 406.488 376.608C406.388 376.367 406.242 376.148 406.057 375.963C405.872 375.778 405.653 375.632 405.411 375.531C405.17 375.431 404.911 375.38 404.65 375.38Z" fill="#2374E1"/>
<path d="M257.45 379.56H473.58M404.65 375.38H327.33C327.069 375.38 326.81 375.431 326.569 375.531C326.327 375.632 326.108 375.778 325.923 375.963C325.738 376.148 325.592 376.367 325.492 376.608C325.392 376.85 325.34 377.109 325.34 377.37V377.57C325.34 378.098 325.55 378.604 325.923 378.977C326.296 379.35 326.803 379.56 327.33 379.56H404.65C405.178 379.56 405.684 379.35 406.057 378.977C406.431 378.604 406.64 378.098 406.64 377.57V377.37C406.64 377.109 406.589 376.85 406.489 376.608C406.389 376.367 406.242 376.148 406.057 375.963C405.873 375.778 405.653 375.632 405.412 375.531C405.17 375.431 404.912 375.38 404.65 375.38V375.38ZM216.36 277V253.62C216.36 252.32 216.877 251.074 217.796 250.155C218.714 249.236 219.961 248.72 221.26 248.72H341C342.3 248.72 343.546 249.236 344.465 250.155C345.384 251.074 345.9 252.32 345.9 253.62V345.05C345.908 345.698 345.786 346.341 345.543 346.941C345.3 347.542 344.941 348.089 344.485 348.549C344.029 349.009 343.486 349.375 342.888 349.624C342.29 349.873 341.648 350.001 341 350H296.93L216.36 277ZM251.88 350H221.26C219.961 350 218.714 349.484 217.796 348.565C216.877 347.646 216.36 346.4 216.36 345.1V288.12L251.88 350ZM255.85 253.78H285.2H255.85ZM313.48 339.88V342.58V339.88ZM318.54 339.88V342.58V339.88ZM323.6 339.88V342.58V339.88Z" stroke="#2B1B9E" stroke-width="1.5" stroke-linecap="round" stroke-linejoin="round"/>
<path d="M323.71 341.94C325.71 343.94 328.98 348.03 329.89 350.73C335.71 367.94 313.76 369.55 309.08 367.87C305.64 366.63 309.16 364.15 311.65 365.33C320.12 369.33 295.83 373.4 325.27 377.62M290.76 379.48H255.58C255.119 379.48 254.663 379.384 254.241 379.199C253.819 379.014 253.439 378.743 253.127 378.404C252.815 378.065 252.576 377.664 252.427 377.228C252.278 376.792 252.221 376.329 252.26 375.87L256.4 326.2C256.479 324.999 257.011 323.873 257.89 323.05C258.768 322.228 259.927 321.77 261.13 321.77H283.91C285.091 321.773 286.228 322.216 287.099 323.013C287.97 323.811 288.513 324.904 288.62 326.08L294.07 375.79C294.121 376.255 294.073 376.725 293.929 377.17C293.786 377.616 293.551 378.026 293.239 378.374C292.927 378.723 292.544 379.001 292.117 379.191C291.69 379.381 291.228 379.48 290.76 379.48V379.48ZM340.71 255.81V342.02V255.81Z" stroke="#2B1B9E" stroke-width="1.5" stroke-linecap="round" stroke-linejoin="round"/>
<path d="M92.2995 381.51H38.2695V427.16H92.2995V381.51ZM40.8895 427.35H87.6395C88.182 427.35 88.7191 427.456 89.2203 427.664C89.7215 427.871 90.1769 428.175 90.5605 428.559C90.944 428.943 91.2482 429.398 91.4557 429.899C91.6632 430.4 91.7698 430.938 91.7695 431.48V461.32H36.7695V431.49C36.7695 430.395 37.2029 429.345 37.975 428.57C38.7471 427.794 39.795 427.355 40.8895 427.35Z" fill="white"/>
<path d="M80.6401 427H49.1001C48.7691 427 48.4413 426.935 48.1354 426.809C47.8295 426.682 47.5516 426.497 47.3176 426.262C47.0835 426.028 46.8979 425.751 46.7714 425.445C46.6448 425.139 46.5798 424.811 46.5801 424.48L46.7101 421.79C46.7101 413.4 49.9401 407.29 58.3301 407.29H68.0001C76.3901 407.29 83.1701 409.57 83.1701 417.96V424.48C83.1698 424.812 83.1041 425.14 82.9768 425.446C82.8494 425.753 82.6629 426.031 82.4279 426.265C82.1929 426.499 81.914 426.684 81.6072 426.811C81.3004 426.937 80.9718 427.001 80.6401 427Z" fill="#FFB41E"/>
<path d="M49.7197 415.65C50.285 415.553 50.7943 415.25 51.1497 414.8C51.4837 414.355 51.7287 413.849 51.8697 413.31C51.9643 413.816 52.1934 414.288 52.533 414.675C52.8726 415.062 53.3101 415.35 53.7997 415.51C53.7997 415.51 52.0197 416.32 51.8697 417.66C51.6654 417.248 51.4173 416.859 51.1297 416.5C50.7346 416.108 50.251 415.816 49.7197 415.65Z" fill="white"/>
<path d="M47.2002 415.3C47.8425 413.12 49.1287 411.185 50.8899 409.748C52.6512 408.312 54.8054 407.441 57.0702 407.25" stroke="#2B1B9E" stroke-width="1.5" stroke-linecap="round" stroke-linejoin="round"/>
<path d="M72.4698 421.71C73.0309 421.609 73.5358 421.307 73.8898 420.86C74.2238 420.415 74.4688 419.909 74.6098 419.37C74.7046 419.878 74.935 420.35 75.2765 420.737C75.6181 421.125 76.058 421.412 76.5498 421.57C76.5498 421.57 74.7698 422.38 74.6098 423.72C74.4055 423.308 74.1574 422.919 73.8698 422.56C73.476 422.171 72.9965 421.88 72.4698 421.71ZM77.8198 415.65C78.3851 415.553 78.8944 415.25 79.2498 414.8C79.5798 414.352 79.8248 413.847 79.9698 413.31C80.0644 413.816 80.2935 414.288 80.6331 414.675C80.9727 415.062 81.4102 415.35 81.8998 415.51C81.8998 415.51 80.1198 416.32 79.9698 417.66C79.7644 417.246 79.5128 416.857 79.2198 416.5C78.8278 416.109 78.3477 415.817 77.8198 415.65ZM63.7698 415.65C64.3351 415.553 64.8445 415.25 65.1998 414.8C65.5298 414.352 65.7748 413.847 65.9198 413.31C66.0146 413.816 66.2437 414.287 66.5833 414.674C66.9229 415.062 67.3603 415.35 67.8498 415.51C67.8498 415.51 66.0698 416.32 65.9198 417.66C65.7145 417.246 65.4629 416.857 65.1698 416.5C64.7778 416.109 64.2977 415.817 63.7698 415.65ZM55.2998 422.62C55.8641 422.52 56.3725 422.218 56.7298 421.77C57.0568 421.32 57.2998 420.815 57.4498 420.28C57.4498 421.1 58.3298 422.06 59.3798 422.48C59.3798 422.48 57.5998 423.29 57.4498 424.63C57.2444 424.216 56.9928 423.827 56.6998 423.47C56.306 423.081 55.8265 422.79 55.2998 422.62Z" fill="white"/>
<path d="M46.5704 423.67C46.4945 424.41 46.5147 425.156 46.6304 425.89C46.82 426.249 47.1101 426.545 47.4653 426.743C47.8204 426.94 48.2253 427.029 48.6304 427H81.6304C83.1304 426.57 83.2904 425.43 83.3304 423.93C83.4104 420.51 83.3304 415.93 82.1004 413.31C81.4563 411.94 80.5156 410.73 79.3465 409.769C78.1773 408.807 76.8089 408.118 75.3404 407.75" stroke="#2B1B9E" stroke-width="1.5" stroke-linecap="round" stroke-linejoin="round"/>
<path d="M69.2897 398.56C68.0297 398.14 59.9997 398.2 58.1497 403.4C56.3797 408.4 57.3197 411.53 57.3197 411.53C57.2766 411.928 57.3673 412.328 57.5774 412.669C57.7874 413.009 58.1049 413.27 58.4797 413.41C58.8607 413.468 59.2504 413.405 59.5937 413.23C59.9369 413.055 60.2164 412.776 60.3927 412.433C60.5087 412.205 60.5757 411.955 60.5897 411.7L60.4997 406.27C60.4997 404.4 62.0997 402 63.9397 401.67C65.244 401.323 66.6062 401.252 67.9397 401.46C70.3097 402.1 71.4097 403.78 71.4097 405.08L71.4697 411.7C71.4983 412.034 71.621 412.354 71.8236 412.622C72.0262 412.889 72.3004 413.094 72.6146 413.212C72.9287 413.331 73.2699 413.358 73.5987 413.29C73.9276 413.223 74.2306 413.063 74.4727 412.831C74.7977 412.52 74.9927 412.098 75.0197 411.65L74.9497 405.31C74.6497 402.44 73.4897 400 69.2897 398.56Z" fill="#FFF7E8"/>
<path d="M60.4805 412C60.6305 411.27 60.4805 408.58 60.4805 406.33C60.5505 404.33 61.9505 401.41 66.1005 401.38C70.2505 401.35 71.3905 403.57 71.4305 405.47V410.13C71.2838 411.025 71.4386 411.943 71.8705 412.74C71.8705 412.74 72.5105 413.57 73.1405 413.45" stroke="#2B1B9E" stroke-width="1.5" stroke-linecap="round" stroke-linejoin="round"/>
<path d="M38.1905 424.54V381.53H44.8405M74.7605 411.69C74.8505 410.45 74.8205 407.26 74.7605 406.74C74.6905 401.81 72.7005 398.69 66.6605 398.49C61.5805 398.32 59.3005 400.7 58.1205 403.3C56.9405 405.9 57.0005 409 57.2405 412C57.2301 412.219 57.292 412.436 57.4166 412.617C57.5413 412.797 57.7218 412.932 57.9305 413L74.7605 411.69ZM36.9405 438V429.47C36.9389 429.169 36.997 428.87 37.1115 428.592C37.2261 428.313 37.3947 428.06 37.6076 427.847C37.8206 427.634 38.0737 427.466 38.3522 427.351C38.6308 427.237 38.9293 427.178 39.2305 427.18H89.4705C89.7716 427.179 90.0699 427.237 90.3484 427.352C90.6268 427.466 90.8798 427.635 91.0927 427.848C91.3056 428.061 91.4742 428.314 91.5888 428.592C91.7035 428.871 91.7618 429.169 91.7605 429.47V459.79L36.9405 438ZM36.9405 459.24V441.12V459.24ZM60.6305 407.42H69.1705H60.6305ZM92.2205 389.46V401.3V389.46ZM85.0605 381.53H92.4205H85.0605ZM56.9105 381.53H72.5305H56.9105Z" stroke="#2B1B9E" stroke-width="1.5" stroke-linecap="round" stroke-linejoin="round"/>
<path d="M52.7997 380.12V378C52.7999 377.715 52.6876 377.442 52.4872 377.24C52.2867 377.037 52.0144 376.922 51.7297 376.92H50.5497C50.2649 376.922 49.9926 377.037 49.7922 377.24C49.5917 377.442 49.4794 377.715 49.4797 378V380.16H48.4797C48.1173 380.166 47.7647 380.278 47.466 380.483C47.1673 380.688 46.9357 380.977 46.8003 381.313C46.6649 381.649 46.6317 382.018 46.7049 382.373C46.7781 382.727 46.9544 383.053 47.2117 383.308C47.5586 383.655 48.029 383.85 48.5197 383.85H53.7597C54.0021 383.85 54.242 383.802 54.4658 383.708C54.6896 383.615 54.8928 383.479 55.0637 383.307C55.2346 383.135 55.37 382.931 55.4619 382.707C55.5539 382.483 55.6007 382.242 55.5997 382C55.5997 381.512 55.4058 381.044 55.0607 380.699C54.7157 380.354 54.2477 380.16 53.7597 380.16L52.7997 380.12ZM80.6797 380.12V378C80.6799 377.715 80.5676 377.442 80.3672 377.24C80.1667 377.037 79.8944 376.922 79.6097 376.92H78.4297C78.1449 376.922 77.8726 377.037 77.6722 377.24C77.4717 377.442 77.3594 377.715 77.3597 378V380.16H76.3597C75.9974 380.166 75.6447 380.278 75.346 380.483C75.0473 380.688 74.8157 380.977 74.6803 381.313C74.5449 381.649 74.5117 382.018 74.5849 382.373C74.6581 382.727 74.8344 383.053 75.0917 383.308C75.4386 383.655 75.909 383.85 76.3997 383.85H81.6397C81.8821 383.85 82.122 383.802 82.3458 383.708C82.5696 383.615 82.7728 383.479 82.9437 383.307C83.1146 383.135 83.25 382.931 83.3419 382.707C83.4339 382.483 83.4807 382.242 83.4797 382C83.4797 381.512 83.2858 381.044 82.9407 380.699C82.5957 380.354 82.1277 380.16 81.6397 380.16L80.6797 380.12Z" fill="#2374E1"/>
<path d="M76.6999 382.2H81.3299M49.1699 382.13H53.0899H49.1699Z" stroke="#2B1B9E" stroke-width="1.5" stroke-linecap="round" stroke-linejoin="round"/>
<path d="M171.77 215.04H107.87C106.947 215.04 106.062 215.407 105.409 216.059C104.756 216.712 104.39 217.597 104.39 218.52V277.99C104.39 278.447 104.48 278.9 104.655 279.322C104.829 279.744 105.086 280.128 105.409 280.451C105.732 280.774 106.116 281.03 106.538 281.205C106.96 281.38 107.413 281.47 107.87 281.47H171.77C172.693 281.47 173.578 281.103 174.23 280.451C174.883 279.798 175.25 278.913 175.25 277.99V218.52C175.25 217.597 174.883 216.712 174.23 216.059C173.578 215.407 172.693 215.04 171.77 215.04Z" fill="#F5F4FE"/>
<path d="M170.69 249.67C170.451 249.298 170.162 248.962 169.83 248.67C170.152 249.054 170.375 249.51 170.48 250C170.69 251 171.03 253.47 162.48 255.76C155.206 257.306 147.774 257.978 140.34 257.76C132.58 257.52 124.05 254.49 118.14 253.31C113.44 252.38 110.46 253.37 110.44 252.5C110.52 256.04 108.44 258.8 111.44 260.32C114.93 262.12 121.8 262.44 126.34 262.54C151.2 263.1 166.6 259.89 168.96 258.87C175.57 256 170.83 249.9 170.69 249.67ZM108.84 239.65V238.9C108.82 239.13 108.82 239.38 108.84 239.65ZM109.43 243.2C109.38 242.96 109.34 242.75 109.3 242.59C109.34 242.75 109.38 243 109.43 243.2ZM110.21 248.55C110.13 247.79 110.04 247.07 109.95 246.4C110 247.07 110.13 247.79 110.21 248.55Z" fill="white"/>
<path d="M108.82 238.9V238.24C108.84 238.45 108.82 238.66 108.82 238.9ZM155 245.71C159 245.91 166.62 245.71 169.83 248.71C167.35 245.57 158.89 245.91 155 245.71ZM126.3 236.64H127.07C126.83 236.62 126.57 236.62 126.3 236.64Z" fill="#2374E1"/>
<path d="M118.16 253.34C124.07 254.52 132.6 257.55 140.36 257.79C147.793 258.008 155.226 257.337 162.5 255.79C171.03 253.5 170.69 251.07 170.5 250.03C170.395 249.54 170.172 249.084 169.85 248.7C166.64 245.78 158.99 245.93 155.02 245.7C145.52 245.22 138.72 240.7 133.93 232.52C133.701 232.096 133.353 231.749 132.93 231.52C132.641 231.382 132.335 231.284 132.02 231.23C131.857 231.22 131.693 231.22 131.53 231.23C131.032 231.215 130.534 231.265 130.05 231.38C129.742 231.456 129.441 231.556 129.15 231.68C128.572 231.867 128.075 232.244 127.74 232.75C127.632 233.006 127.587 233.283 127.61 233.56C127.669 234.247 127.83 234.921 128.09 235.56C128.252 235.986 128.435 236.403 128.64 236.81C128.145 236.721 127.643 236.674 127.14 236.67H126.37C126.091 236.691 125.813 236.731 125.54 236.79C125.259 236.841 124.984 236.921 124.72 237.03C124.321 237.179 123.954 237.403 123.64 237.69C123.02 238.28 122.29 239.07 121.47 239.79C121.072 240.155 120.648 240.489 120.2 240.79C119.644 241.178 119.014 241.447 118.35 241.58C117.858 241.675 117.352 241.655 116.87 241.52C114.09 240.73 114.55 235.14 111.18 235.6H110.95C110.691 235.649 110.442 235.737 110.21 235.86C109.933 236.016 109.694 236.231 109.51 236.49C109.165 237.015 108.965 237.622 108.93 238.25V239.66C109.002 240.651 109.156 241.635 109.39 242.6C109.39 242.76 109.47 242.97 109.52 243.21C109.687 244.056 109.831 244.906 109.95 245.76L110.04 246.41C110.13 247.08 110.22 247.8 110.3 248.56C110.35 249.06 110.39 249.56 110.43 250.11C110.49 250.91 110.53 251.72 110.55 252.54C110.48 253.4 113.46 252.41 118.16 253.34Z" fill="#2374E1"/>
<path d="M172 251.35C172.34 252.202 172.476 253.121 172.396 254.035C172.316 254.948 172.023 255.83 171.54 256.61C168.22 261.25 152.77 262.14 145.25 262.47C135.99 262.88 113.13 262.85 110.53 259.62C110.192 259.109 109.964 258.532 109.863 257.928C109.761 257.323 109.787 256.704 109.94 256.11C110.41 253.714 110.575 251.268 110.43 248.83C110.08 246.13 109.68 243.3 109.12 240.63C108.78 239.06 108.43 237.33 109.84 236.14C110.176 235.86 110.573 235.665 110.999 235.569C111.425 235.473 111.868 235.481 112.29 235.59C115.29 236.42 114.01 240.96 116.59 241.78C116.96 241.861 117.342 241.869 117.714 241.802C118.087 241.735 118.442 241.595 118.76 241.39C120.76 240.31 122.18 238.39 124.18 237.3C125.648 236.53 127.335 236.287 128.96 236.611C130.585 236.935 132.05 237.806 133.11 239.08C133.484 239.506 133.706 240.044 133.74 240.61C133.74 241.13 133.28 242.14 131.95 240.95C130.507 239.535 129.296 237.902 128.36 236.11C127.813 235.334 127.542 234.398 127.59 233.45C127.78 232.17 129.11 231.45 130.38 231.21C133.97 230.62 135.57 234.93 136.38 235.94C140.819 241.375 147.2 244.869 154.17 245.68C159.17 246.31 165.45 245.89 168.57 247.46C169.173 247.686 169.686 248.1 170.036 248.64C170.385 249.18 170.551 249.818 170.51 250.46C170.41 252.27 169.08 253.58 166.59 254.46C158.36 257.2 147.81 257.99 140.89 257.67C136.203 257.496 131.547 256.825 127 255.67C122.45 254.58 118.1 252.07 113.84 253" stroke="#2B1B9E" stroke-width="1.5" stroke-linecap="round" stroke-linejoin="round"/>
<path d="M175.25 268.37V278M134.64 244.57C134.35 246.122 134.401 247.719 134.79 249.25C134.932 249.763 134.882 250.311 134.65 250.79C134.497 250.993 134.286 251.145 134.046 251.227C133.805 251.309 133.545 251.317 133.3 251.25C133.069 251.17 132.858 251.038 132.685 250.865C132.512 250.692 132.38 250.481 132.3 250.25C132.209 250.035 132.191 249.796 132.25 249.57C132.31 249.402 132.406 249.248 132.53 249.12C133.289 248.449 134.145 247.896 135.07 247.48C135.533 247.272 135.941 246.959 136.26 246.564C136.58 246.17 136.802 245.706 136.91 245.21C136.938 245.04 136.913 244.866 136.84 244.71C136.708 244.472 136.51 244.277 136.27 244.15C136.071 244.018 135.835 243.953 135.596 243.963C135.357 243.974 135.128 244.06 134.941 244.209C134.817 244.307 134.714 244.43 134.64 244.57V244.57Z" stroke="#2B1B9E" stroke-width="1.5" stroke-linecap="round" stroke-linejoin="round"/>
<path d="M175.25 278C175.25 278.923 174.883 279.808 174.231 280.461C173.578 281.113 172.693 281.48 171.77 281.48H107.87C107.413 281.48 106.96 281.39 106.538 281.216C106.115 281.041 105.732 280.785 105.408 280.461C105.085 280.138 104.829 279.754 104.654 279.332C104.479 278.91 104.389 278.457 104.39 278V218.52C104.39 217.597 104.757 216.712 105.41 216.06C106.062 215.407 106.947 215.041 107.87 215.04H171.77C172.693 215.04 173.578 215.407 174.231 216.059C174.883 216.712 175.249 217.597 175.25 218.52V262.38" stroke="#2B1B9E" stroke-width="1.5" stroke-linecap="round" stroke-linejoin="round"/>
<path d="M109.57 221.03C109.959 221.03 110.333 220.875 110.609 220.599C110.885 220.324 111.04 219.95 111.04 219.56C111.04 219.17 110.885 218.796 110.609 218.521C110.333 218.245 109.959 218.09 109.57 218.09C109.18 218.09 108.806 218.245 108.53 218.521C108.254 218.796 108.1 219.17 108.1 219.56C108.1 219.95 108.254 220.324 108.53 220.599C108.806 220.875 109.18 221.03 109.57 221.03ZM115.44 221.03C115.829 221.03 116.203 220.875 116.479 220.599C116.755 220.324 116.91 219.95 116.91 219.56C116.91 219.17 116.755 218.796 116.479 218.521C116.203 218.245 115.829 218.09 115.44 218.09C115.05 218.09 114.676 218.245 114.4 218.521C114.124 218.796 113.97 219.17 113.97 219.56C113.97 219.95 114.124 220.324 114.4 220.599C114.676 220.875 115.05 221.03 115.44 221.03Z" fill="#2B1B9E"/>
<path d="M33.2998 146.77C37.8298 111.3 62.8498 94 86.9998 84.41C116 73 149.58 79.1 143.32 45.69" stroke="#231F20" stroke-width="5" stroke-linecap="round" stroke-linejoin="round"/>
<path d="M273 161C272.997 161.985 272.604 162.928 271.906 163.623C271.209 164.319 270.265 164.709 269.28 164.71H154C153.513 164.71 153.03 164.615 152.58 164.428C152.13 164.242 151.72 163.969 151.376 163.624C151.031 163.28 150.758 162.871 150.572 162.42C150.385 161.97 150.29 161.487 150.29 161C150.29 160.015 150.681 159.071 151.376 158.373C152.072 157.676 153.015 157.283 154 157.28L273.94 153.28L273 161Z" fill="white"/>
<path d="M201.81 164.57H214.66M265.27 164.79H342.57H265.27Z" stroke="#2B1B9E" stroke-width="1.5" stroke-linecap="round" stroke-linejoin="round"/>
<path d="M203.79 92.2H283.07C284.012 92.2048 284.924 92.535 285.65 93.1347C286.377 93.7344 286.874 94.5668 287.058 95.491C287.18 96.104 287.16 96.7368 287 97.341L273.21 156.34C272.971 157.202 272.457 157.962 271.745 158.504C271.034 159.046 270.164 159.339 269.27 159.34H184.94C184.323 159.345 183.713 159.211 183.156 158.946C182.599 158.682 182.109 158.294 181.724 157.813C181.339 157.331 181.068 156.768 180.932 156.167C180.796 155.565 180.799 154.94 180.94 154.34L199.79 95.34C200.003 94.441 200.514 93.6408 201.241 93.0704C201.967 92.5 202.866 92.1931 203.79 92.2Z" fill="white"/>
<path d="M189.43 151.81L205.07 98.83L279.27 98.91L266.88 152.03L189.43 151.81Z" fill="#EFF8FE"/>
<path d="M274.87 119.44L266.88 152.03H189.25L204.46 101.63" stroke="#2B1B9E" stroke-width="1.5" stroke-linecap="round" stroke-linejoin="round"/>
<path d="M278.53 99.2L213.53 98.98M273.22 156.37L287.01 97.37C287.17 96.7655 287.19 96.1322 287.067 95.5189C286.945 94.9056 286.683 94.3285 286.303 93.8321C285.922 93.3358 285.433 92.9332 284.872 92.6555C284.312 92.3777 283.695 92.2322 283.07 92.23H203.31C202.39 92.2215 201.495 92.5241 200.768 93.0886C200.042 93.6532 199.528 94.4466 199.31 95.34L182.13 151.49L273.22 156.37Z" stroke="#2B1B9E" stroke-width="1.5" stroke-linecap="round" stroke-linejoin="round"/>
<path d="M243.06 96.64C243.362 96.64 243.652 96.5199 243.866 96.3061C244.08 96.0923 244.2 95.8023 244.2 95.5C244.2 95.1977 244.08 94.9077 243.866 94.6939C243.652 94.4801 243.362 94.36 243.06 94.36C242.758 94.36 242.468 94.4801 242.254 94.6939C242.04 94.9077 241.92 95.1977 241.92 95.5C241.92 95.8023 242.04 96.0923 242.254 96.3061C242.468 96.5199 242.758 96.64 243.06 96.64Z" fill="#2B1B9E"/>
<path d="M273 161C272.997 161.985 272.604 162.928 271.906 163.623C271.209 164.319 270.265 164.709 269.28 164.71H154C153.513 164.71 153.03 164.615 152.58 164.428C152.13 164.242 151.72 163.969 151.376 163.624C151.031 163.28 150.758 162.871 150.572 162.42C150.385 161.97 150.29 161.487 150.29 161C150.29 160.015 150.681 159.071 151.376 158.373C152.072 157.676 153.015 157.283 154 157.28H269.32" stroke="#2B1B9E" stroke-width="1.5" stroke-linecap="round" stroke-linejoin="round"/>
<path d="M260.41 144.94L199.52 144.83C199.101 144.856 198.682 144.781 198.299 144.61C197.915 144.439 197.579 144.177 197.319 143.848C197.058 143.519 196.881 143.132 196.803 142.719C196.725 142.307 196.748 141.882 196.87 141.48L206.05 108.9C206.313 107.962 206.87 107.133 207.638 106.534C208.406 105.934 209.346 105.597 210.32 105.57L269.94 105.47C270.573 105.429 271.199 105.62 271.701 106.009C272.203 106.397 272.546 106.955 272.666 107.578C272.745 107.991 272.722 108.417 272.6 108.82L264.68 141.6C264.417 142.539 263.86 143.369 263.092 143.97C262.324 144.571 261.385 144.911 260.41 144.94Z" fill="white"/>
<path d="M258 141.91H239C238.223 141.96 237.454 141.725 236.838 141.249C236.222 140.773 235.801 140.088 235.654 139.323C235.556 138.817 235.582 138.294 235.73 137.8L236.52 134.55C236.846 133.399 237.529 132.382 238.471 131.645C239.413 130.908 240.565 130.489 241.76 130.45H260.76C261.275 130.414 261.792 130.504 262.264 130.713C262.737 130.921 263.152 131.241 263.474 131.645C263.795 132.05 264.012 132.527 264.107 133.035C264.202 133.543 264.172 134.066 264.02 134.56L263.24 137.81C262.912 138.96 262.229 139.976 261.287 140.713C260.346 141.45 259.195 141.869 258 141.91Z" fill="#FFB41E"/>
<path d="M241.28 138.5L241 139.5M243.34 133.5C242.883 133.409 242.411 133.426 241.962 133.549C241.512 133.673 241.097 133.899 240.75 134.21C240.653 134.298 240.574 134.404 240.518 134.523C240.462 134.641 240.43 134.77 240.423 134.9C240.417 135.031 240.436 135.162 240.48 135.286C240.524 135.409 240.592 135.523 240.68 135.62C241.14 136.05 242.25 135.85 242.82 136.14C243.54 136.52 243.44 137.86 241.97 138.14C241.249 138.311 240.492 138.233 239.82 137.92L243.34 133.5ZM242.67 132.07C242.54 132.53 242.47 132.78 242.33 133.25L242.67 132.07Z" stroke="#2B1B9E" stroke-width="1.5" stroke-linecap="round" stroke-linejoin="round"/>
<path d="M220.39 109.42C219.64 108.999 218.77 108.841 217.92 108.97C215.51 109.25 213.81 111.09 212.86 114.42H214.5C214.766 113.097 215.471 111.903 216.5 111.03C217.083 110.622 217.791 110.434 218.5 110.5C218.778 110.504 219.048 110.593 219.274 110.753C219.501 110.914 219.674 111.139 219.77 111.4C219.855 111.701 219.866 112.019 219.802 112.326C219.737 112.632 219.599 112.919 219.4 113.16C218.4 114.57 216.59 114.78 215.01 114.81H212.14C211.583 114.803 211.03 114.909 210.515 115.12C209.999 115.331 209.532 115.644 209.14 116.04C208.806 116.399 208.588 116.851 208.515 117.337C208.441 117.822 208.516 118.318 208.73 118.76C208.924 119.026 209.181 119.24 209.477 119.383C209.774 119.526 210.101 119.593 210.43 119.58C210.769 119.583 211.107 119.532 211.43 119.43C212.041 119.206 212.59 118.84 213.032 118.362C213.474 117.884 213.795 117.307 213.97 116.68H212.33C212.16 117.11 211.67 118.12 210.74 118.01C210.611 117.996 210.49 117.942 210.393 117.856C210.296 117.77 210.229 117.656 210.2 117.53C210.177 117.396 210.186 117.259 210.228 117.13C210.27 117.001 210.343 116.885 210.44 116.79C210.934 116.421 211.546 116.247 212.16 116.3H214.73C215.892 116.316 217.048 116.12 218.14 115.72C219.091 115.348 219.934 114.743 220.59 113.96C221.227 113.255 221.583 112.34 221.59 111.39C221.588 110.991 221.486 110.6 221.294 110.25C221.102 109.901 220.825 109.605 220.49 109.39" fill="#FFB41E"/>
<path d="M222.81 131.61L235.37 131.72M198.6 135.37L207 107.22C207.141 106.722 207.437 106.282 207.846 105.964C208.254 105.646 208.752 105.466 209.27 105.45L271.5 105.57C271.721 105.556 271.943 105.596 272.146 105.687C272.348 105.777 272.527 105.915 272.665 106.088C272.803 106.262 272.898 106.466 272.94 106.684C272.983 106.902 272.972 107.127 272.91 107.34L264.28 143.09C264.138 143.587 263.841 144.025 263.433 144.341C263.024 144.658 262.526 144.836 262.01 144.85L198.01 144.74C197.791 144.756 197.571 144.718 197.37 144.63C197.168 144.542 196.991 144.407 196.854 144.236C196.715 144.065 196.62 143.864 196.576 143.649C196.532 143.434 196.54 143.211 196.6 143L198.6 135.37ZM214.93 120.89H240.53H214.93ZM213.69 126.51L221.05 126.43L213.69 126.51ZM223.69 126.56L236.25 126.66L223.69 126.56ZM212.8 131.57L220.16 131.49L212.8 131.57Z" stroke="#2B1B9E" stroke-width="1.5" stroke-linecap="round" stroke-linejoin="round"/>
<path d="M196.12 164C195.38 164.74 196.83 161.45 206.82 155.32C211.13 152.68 216.68 150.84 219.01 150.8C224.01 150.72 230.54 150.1 233.8 151.7C234.233 151.905 234.622 152.195 234.942 152.553C235.262 152.91 235.507 153.328 235.664 153.782C235.82 154.236 235.883 154.717 235.85 155.196C235.816 155.675 235.687 156.142 235.47 156.57C234.29 159.15 232.76 159.15 231.14 159.85C229.52 160.55 227.83 161.94 225.28 163.26C223.13 164.36 222.14 168.07 220.28 170.19C218.728 171.967 216.834 173.413 214.71 174.44C214.71 174.44 212.06 168.99 209.15 167.19C204.3 164.16 196.28 163.84 196.12 164Z" fill="white"/>
<path d="M235.93 155.3C235.04 158.06 233.43 158.08 230.77 159.24C229.46 159.8 227.07 161.84 225.77 162.4C223.22 163.51 221.64 170.99 216.52 173.55M197.52 162C202.88 156.68 209.52 152.24 217.03 151.31C220.456 150.907 223.9 150.684 227.35 150.64L197.52 162ZM217 154.71C221.527 153.558 226.114 152.654 230.74 152L217 154.71ZM221.7 158.09C223.085 157.191 224.585 156.481 226.16 155.98C228.9 154.98 231.68 154.56 232.97 153.98L221.7 158.09Z" stroke="#2B1B9E" stroke-width="1.5" stroke-linecap="round" stroke-linejoin="round"/>
<path d="M194.58 165C196.422 164.628 198.286 164.377 200.16 164.25C203.57 163.99 212.85 167.62 214.69 174.57C216.53 181.52 212.69 182.29 212.69 182.29C212.69 182.29 205.69 175.83 203.52 174.29C200.07 171.87 190.32 166.56 190.32 166.56L194.58 165Z" fill="#FFEEEE"/>
<path d="M191.74 164.75C193.287 164.871 194.844 164.722 196.34 164.31C203.29 162.57 212.94 167.56 214.69 174.53C216.12 180.25 214.33 181.62 214.33 181.62" stroke="#2B1B9E" stroke-width="1.5" stroke-linecap="round" stroke-linejoin="round"/>
<path d="M96.5996 114.17C98.4526 114.97 100.452 115.379 102.47 115.37C111.76 115.07 119.78 111.3 130.27 114.25L131.06 114.5L133.06 106.57C133.06 106.57 140.73 110.37 146.63 106.17C149.225 104.395 151.142 101.794 152.07 98.79C152.434 97.4688 153.247 96.3159 154.37 95.53C155.2 94.99 158.19 94.46 157.53 92.63C156.22 88.95 154.3 85.63 155.08 82.84C155.44 79.69 155.607 76.52 155.58 73.35C154.909 69.7444 153.946 66.1994 152.7 62.75C152.7 62.75 150.2 65.94 143.76 66.46C142.176 66.5231 140.609 66.1235 139.25 65.31C138.627 67.2025 137.42 68.8491 135.803 70.0133C134.186 71.1774 132.242 71.7995 130.25 71.79H130.16C129.392 73.3877 128.188 74.7363 126.688 75.6809C125.188 76.6255 123.452 77.1278 121.68 77.13C121.117 77.142 120.554 77.0984 120 77C118.28 75.7 117 75.62 115.92 76C115.022 76.324 114.242 76.9098 113.68 77.6817C113.119 78.4535 112.802 79.376 112.77 80.33C112.48 84.78 115.07 89.33 115.07 89.33L107.91 92.52C107.91 92.52 103.81 102 101.91 105.18C101.75 105.38 96.5996 114.17 96.5996 114.17Z" fill="white"/>
<path d="M158.2 49.17V48.5C158.209 46.2301 157.565 44.0054 156.344 42.0918C155.123 40.1781 153.378 38.6563 151.315 37.708C149.253 36.7593 146.962 36.4237 144.714 36.7415C142.467 37.0592 140.358 38.0168 138.64 39.5C136.95 35.01 131.45 32.43 126.38 32.43C121.76 32.43 118.95 34.43 116.99 38.33C116.405 37.9962 115.793 37.7119 115.16 37.48C115.001 35.2361 114.239 33.0766 112.956 31.2291C111.672 29.3816 109.915 27.9143 107.867 26.9818C105.82 26.0493 103.559 25.6861 101.323 25.9304C99.0868 26.1747 96.9578 27.0175 95.1602 28.37C94.2226 27.6177 93.0909 27.1465 91.8965 27.0111C90.702 26.8757 89.4936 27.0816 88.4114 27.6049C87.3291 28.1283 86.4174 28.9476 85.7818 29.9679C85.1462 30.9883 84.8128 32.1679 84.8202 33.37V33.73C76.7602 34.44 77.0202 43.31 78.6802 45.73C77.7112 46.2871 76.9061 47.0898 76.3461 48.0571C75.7861 49.0244 75.4909 50.1222 75.4902 51.24C75.485 52.4559 75.8323 53.6473 76.4902 54.67C75.7817 55.729 75.3423 56.945 75.2102 58.2123C75.0781 59.4797 75.2573 60.7601 75.7322 61.9425C76.2071 63.1249 76.9634 64.1735 77.9355 64.9973C78.9075 65.8212 80.066 66.3953 81.3102 66.67C81.4008 67.9914 81.8268 69.2679 82.5481 70.3789C83.2693 71.4898 84.2618 72.3985 85.432 73.0191C86.6021 73.6397 87.9112 73.9517 89.2354 73.9256C90.5597 73.8995 91.8554 73.5362 93.0002 72.87C92.9852 73.1431 92.9852 73.4169 93.0002 73.69C92.9993 75.5031 93.5228 77.2777 94.5075 78.8C95.4922 80.3223 96.8962 81.5274 98.5502 82.27C98.5352 82.56 98.5352 82.85 98.5502 83.14C98.5554 85.0312 99.1307 86.877 100.201 88.4362C101.271 89.9954 102.787 91.1955 104.55 91.88C105.65 92.323 106.825 92.55 108.01 92.55C110.84 92.55 115.11 89.32 115.11 89.32C115.11 89.32 112.52 84.73 112.81 80.32C112.829 79.3475 113.145 78.404 113.715 77.6159C114.285 76.8277 115.083 76.2326 116 75.91C117 75.58 118.36 75.66 120.08 76.91C120.636 77.022 121.203 77.08 121.77 77.08C123.543 77.078 125.279 76.5758 126.779 75.6312C128.279 74.6866 129.482 73.3378 130.25 71.74H130.34C132.333 71.7491 134.277 71.127 135.893 69.9629C137.51 68.7987 138.717 67.1524 139.34 65.26C140.7 66.0735 142.267 66.4731 143.85 66.41C150.29 65.89 152.79 62.7 152.79 62.7C154.036 66.1494 154.999 69.6944 155.67 73.3C155.71 73.6073 155.834 73.8976 156.028 74.1393C156.222 74.3809 156.479 74.5645 156.77 74.67C157.655 74.95 158.584 75.062 159.51 75C160.557 75.0003 161.585 74.7297 162.496 74.2144C163.407 73.6991 164.169 72.9567 164.708 72.0596C165.246 71.1624 165.543 70.141 165.57 69.0949C165.597 68.0487 165.352 67.0135 164.86 66.09C165.753 64.5167 166.267 62.7567 166.36 60.95C166.478 58.3637 165.744 55.8103 164.269 53.6821C162.795 51.5539 160.663 49.9686 158.2 49.17Z" fill="#2374E1"/>
<path d="M151.22 85.24C151.76 83.88 151.85 81.85 151.39 81.1C151.264 80.929 151.081 80.8081 150.874 80.7587C150.667 80.7093 150.449 80.7346 150.259 80.83C150.133 80.8938 150.024 80.9863 149.94 81.1C149.534 81.6914 149.298 82.3835 149.26 83.1C149.02 83.95 149.02 84.85 149.26 85.7C149.331 85.8234 149.429 85.929 149.547 86.0087C149.665 86.0884 149.799 86.1402 149.94 86.16C150.228 86.1853 150.516 86.1064 150.751 85.9375C150.986 85.7687 151.152 85.5212 151.22 85.24Z" fill="#2B1B9E"/>
<path d="M133.05 107C132.54 109.1 130.55 112.17 130.47 114.32M153.47 65.28C156.27 69.57 155.97 75.11 155.41 80.2C155.03 83.65 154.64 87.4 156.47 90.34C157.1 91.0604 157.491 91.9582 157.59 92.91C157.488 93.3962 157.268 93.8498 156.949 94.2301C156.63 94.6105 156.221 94.9059 155.76 95.09C154.833 95.437 153.966 95.9262 153.19 96.54C152.192 97.6167 151.465 98.916 151.07 100.33C150.658 101.916 149.889 103.387 148.821 104.629C147.753 105.872 146.415 106.854 144.91 107.5C141.49 108.89 137.79 108.28 134.32 107.06C130.85 105.84 127.72 102.43 125.18 99.14L153.47 65.28Z" stroke="#2B1B9E" stroke-width="1.5" stroke-linecap="round" stroke-linejoin="round"/>
<path d="M143.25 132.54L144.56 130.77C144.56 130.77 144.61 118.77 131.06 114.5L130.27 114.25C119.78 111.25 111.76 115.07 102.47 115.37C100.857 115.506 99.2349 115.252 97.7403 114.63C97.4256 114.497 97.1402 114.303 96.9003 114.06L101.1 106.74L103.15 102.2C100.47 101.53 84.8203 97.1 74.6403 108.47C69.3103 114.47 69.4503 122.39 71.2403 127.31C71.9558 129.258 73.2417 130.944 74.9303 132.15C74.9303 132.15 67.5303 147.29 65.7603 152.6C62.2903 162.97 57.5303 188.65 57.5303 188.65C57.5303 188.65 77.8703 191.19 84.6703 190.87C96.1703 190.35 167.14 165.34 167.14 165.34L143.25 132.54Z" fill="#FFEEEE"/>
<path d="M143.15 95.48C143.876 96.4041 144.905 97.0428 146.055 97.2842C147.205 97.5256 148.404 97.3542 149.44 96.8M145.59 136.24C145.59 137.47 155.95 148.91 167.14 165.34L145.59 136.24ZM121.28 79.18C119.71 75.97 117.28 74.97 114.99 76.26C112.7 77.55 112.34 80.12 112.76 82.75C112.97 84.1 114.76 93.51 120.21 88.75L121.28 79.18ZM154.36 57.09C154.407 58.6404 154.016 60.1726 153.232 61.5113C152.449 62.85 151.305 63.9412 149.93 64.66C146.67 66.5 137.09 68.2 136.46 61.41C136.3 59.64 138.26 58.82 139.12 61.87C139.442 63.437 139.297 65.0641 138.701 66.5489C138.105 68.0336 137.086 69.3103 135.77 70.22C133.22 71.86 129.59 72.68 127.59 70.4C126.48 69.12 126.41 68.17 127.17 67.58C127.56 67.27 129.27 67.08 129.9 69.72C130.39 71.72 129.9 74.72 124.28 76.6L154.36 57.09ZM129.74 32.85C122 30.67 116.98 36.22 116.74 39.32C116.66 38.23 108.39 34.73 103.1 40.32C101.915 41.6149 101.125 43.2226 100.826 44.9525C100.526 46.6824 100.729 48.4619 101.41 50.08C100.53 48.6 94.9601 48.7 94.6901 53.43C94.7423 55.1718 95.3799 56.8452 96.5001 58.18C94.3201 58.45 92.0901 61.91 95.0101 67.56L129.74 32.85ZM99.1501 81.15C98.0201 85.15 100.79 90.05 106.88 92.9C107.931 93.423 109.064 93.761 110.23 93.9C110.783 93.9605 111.339 93.8112 111.787 93.4815C112.235 93.1519 112.543 92.666 112.65 92.12C112.75 90.8 111.1 89.86 109.84 90.28C108.58 90.7 107.9 92.28 107.66 93.53C107.42 94.78 100.17 108.75 97.0001 113.2L99.1501 81.15ZM152.83 77.39C152.288 76.9821 151.619 76.7793 150.942 76.8178C150.264 76.8562 149.623 77.1333 149.13 77.6L152.83 77.39ZM146.68 101.06C142.62 99.95 143.29 96.06 142.95 95.36L146.68 101.06Z" stroke="#2B1B9E" stroke-width="1.5" stroke-linecap="round" stroke-linejoin="round"/>
<path d="M93.5 112.73C96.01 113.9 98.5 115.32 101.3 115.5C108.24 115.96 117.61 111.76 129.37 114.35C133.157 115.206 136.604 117.168 139.275 119.986C141.945 122.805 143.719 126.353 144.37 130.18" stroke="#2B1B9E" stroke-width="1.5" stroke-linecap="round" stroke-linejoin="round"/>
<path d="M72.9996 135.86C63.9996 151.42 62.4196 167.86 58.6396 185.1M142.86 131.65C132.61 131.16 127.47 131.74 117.55 134.38C105.05 137.7 84.2897 139.38 75.9797 133.07C62.2397 122.62 74.1497 96.25 100.98 101.59L142.86 131.65Z" stroke="#2B1B9E" stroke-width="1.5" stroke-linecap="round" stroke-linejoin="round"/>
<path d="M117.23 87.64C117.519 87.64 117.796 87.5252 118 87.3207C118.205 87.1163 118.32 86.8391 118.32 86.55C118.32 86.2609 118.205 85.9837 118 85.7792C117.796 85.5748 117.519 85.46 117.23 85.46C116.941 85.46 116.663 85.5748 116.459 85.7792C116.254 85.9837 116.14 86.2609 116.14 86.55C116.14 86.8391 116.254 87.1163 116.459 87.3207C116.663 87.5252 116.941 87.64 117.23 87.64Z" fill="#2B1B9E"/>
<path d="M114.56 157.31C114.56 157.31 121.17 170.1 125.63 174.69" stroke="#2B1B9E" stroke-width="1.5" stroke-linecap="round" stroke-linejoin="round"/>
<path d="M33.3004 146.77C31.7804 232 144.68 172.13 159.93 167.85C200.49 156.49 219.32 194.02 242.33 223.59" stroke="#9747FF" stroke-width="5" stroke-linecap="round" stroke-linejoin="round"/>
<path d="M319 164.65H306C304.886 164.649 303.818 164.206 303.031 163.419C302.243 162.631 301.801 161.564 301.8 160.45L300.13 134.55C300.13 133.929 300.376 133.334 300.815 132.895C301.254 132.457 301.849 132.21 302.47 132.21H322.52C323.142 132.209 323.738 132.455 324.179 132.894C324.62 133.333 324.868 133.928 324.87 134.55L323.2 160.45C323.2 161.564 322.757 162.632 321.97 163.42C321.182 164.208 320.114 164.65 319 164.65Z" fill="#FFB41E"/>
<path d="M324.33 147.83C324.33 147.83 329.42 146.26 329.33 143.73C329.24 140.56 325.24 141.24 324.5 142.18L324.73 138.26C331.01 136.32 333.16 141.44 332.32 145C331.32 149.29 325.45 151.14 323.75 151.79L324.33 147.83Z" fill="white"/>
<path d="M324.52 142.18L323.23 160.45C323.23 161.564 322.787 162.632 322 163.42C321.212 164.207 320.144 164.65 319.03 164.65H306C304.886 164.649 303.818 164.206 303.031 163.419C302.243 162.631 301.801 161.564 301.8 160.45" stroke="#2B1B9E" stroke-width="1.5" stroke-linecap="round" stroke-linejoin="round"/>
<path d="M300.48 139.58L300.16 134.58C300.16 133.959 300.407 133.364 300.845 132.925C301.284 132.487 301.88 132.24 302.5 132.24H322.55C323.172 132.239 323.769 132.485 324.209 132.924C324.65 133.363 324.898 133.958 324.9 134.58L324.75 138.29L324.99 138.34C331.23 136.34 333.24 141.59 332.34 145.14C331.44 148.69 327.71 150.3 326 151" stroke="#2B1B9E" stroke-width="1.5" stroke-linecap="round" stroke-linejoin="round"/>
<path d="M311.07 107.26C311.07 110.47 309.38 110.47 309.38 113.69C309.38 116.91 311.07 116.9 311.07 120.11C311.07 123.32 309.38 123.33 309.38 126.54M324.64 142.06C325.81 141.16 329.1 140.88 329.35 143.83C329.52 145.83 326.72 147.04 326.72 147.04L324.64 142.06Z" stroke="#2B1B9E" stroke-width="1.5" stroke-linecap="round" stroke-linejoin="round"/>
<path d="M317.78 118.4C317.78 120.35 316.09 120.35 316.09 122.31C316.09 124.27 317.78 124.31 317.78 126.23C317.78 128.15 316.09 128.23 316.09 130.15M311.07 107.26C311.07 110.47 309.38 110.47 309.38 113.69C309.38 116.91 311.07 116.9 311.07 120.11C311.07 123.32 309.38 123.33 309.38 126.54L311.07 107.26Z" stroke="#2B1B9E" stroke-width="1.5" stroke-linecap="round" stroke-linejoin="round"/>
<path d="M317.78 118.4C317.78 120.35 316.09 120.35 316.09 122.31C316.09 124.27 317.78 124.31 317.78 126.23C317.78 128.15 316.09 128.23 316.09 130.15" stroke="#2B1B9E" stroke-width="1.5" stroke-linecap="round" stroke-linejoin="round"/>
<path d="M255 215H187.07C186.12 215 185.35 215.77 185.35 216.72V280.4C185.35 281.35 186.12 282.12 187.07 282.12H255C255.95 282.12 256.72 281.35 256.72 280.4V216.72C256.72 215.77 255.95 215 255 215Z" fill="#FFF7E8"/>
<path d="M190.88 221.98C191.27 221.98 191.644 221.825 191.92 221.549C192.195 221.274 192.35 220.9 192.35 220.51C192.35 220.12 192.195 219.746 191.92 219.471C191.644 219.195 191.27 219.04 190.88 219.04C190.49 219.04 190.116 219.195 189.841 219.471C189.565 219.746 189.41 220.12 189.41 220.51C189.41 220.9 189.565 221.274 189.841 221.549C190.116 221.825 190.49 221.98 190.88 221.98ZM196.74 221.98C197.13 221.98 197.504 221.825 197.78 221.549C198.055 221.274 198.21 220.9 198.21 220.51C198.21 220.12 198.055 219.746 197.78 219.471C197.504 219.195 197.13 219.04 196.74 219.04C196.35 219.04 195.976 219.195 195.701 219.471C195.425 219.746 195.27 220.12 195.27 220.51C195.27 220.9 195.425 221.274 195.701 221.549C195.976 221.825 196.35 221.98 196.74 221.98Z" fill="#2B1B9E"/>
<path d="M256.87 219.83C256.73 221.78 256.68 254.35 256.68 254.35V280.35C256.679 280.807 256.498 281.245 256.176 281.569C255.854 281.894 255.417 282.077 254.96 282.08H187C186.541 282.08 186.101 281.898 185.777 281.573C185.616 281.413 185.488 281.222 185.401 281.012C185.314 280.802 185.269 280.577 185.27 280.35V216.72C185.27 216.379 185.372 216.045 185.562 215.762C185.753 215.478 186.023 215.258 186.339 215.128C186.549 215.042 186.773 214.999 187 215H252.81" stroke="#2B1B9E" stroke-width="1.5" stroke-linecap="round" stroke-linejoin="round"/>
<path d="M212.6 272.37C215.086 272.37 217.469 271.383 219.226 269.626C220.983 267.868 221.97 265.485 221.97 263C221.97 260.515 220.983 258.132 219.226 256.374C217.469 254.617 215.086 253.63 212.6 253.63C210.115 253.63 207.732 254.617 205.975 256.374C204.218 258.132 203.23 260.515 203.23 263C203.23 265.485 204.218 267.868 205.975 269.626C207.732 271.383 210.115 272.37 212.6 272.37Z" fill="#FFB41E"/>
<path d="M228.33 272.89C230.815 272.89 233.198 271.903 234.956 270.146C236.713 268.388 237.7 266.005 237.7 263.52C237.7 261.035 236.713 258.652 234.956 256.894C233.198 255.137 230.815 254.15 228.33 254.15C225.845 254.15 223.462 255.137 221.704 256.894C219.947 258.652 218.96 261.035 218.96 263.52C218.96 266.005 219.947 268.388 221.704 270.146C223.462 271.903 225.845 272.89 228.33 272.89Z" fill="#FFB41E"/>
<path d="M228.33 272.89C230.815 272.89 233.198 271.903 234.956 270.146C236.713 268.388 237.7 266.005 237.7 263.52C237.7 261.035 236.713 258.652 234.956 256.894C233.198 255.137 230.815 254.15 228.33 254.15C225.845 254.15 223.462 255.137 221.704 256.894C219.947 258.652 218.96 261.035 218.96 263.52C218.96 266.005 219.947 268.388 221.704 270.146C223.462 271.903 225.845 272.89 228.33 272.89Z" stroke="#2B1B9E" stroke-width="1.5" stroke-linecap="round" stroke-linejoin="round"/>
<path d="M222.62 232.62C226.98 237.51 227.99 244.79 226.93 250.07C226.75 250.98 233.1 252.35 233.28 250.85C233.76 246.93 233.75 245.46 232.35 239.05C231.26 234.05 228.88 229.73 223.95 228.29C221.671 227.604 219.243 227.58 216.95 228.221C214.657 228.862 212.594 230.141 211 231.91C202.93 240.57 205.75 251.05 206 251.28L211.62 250.12C211.62 250.12 211.62 242.91 212.62 240.49C216.92 230 222.62 232.62 222.62 232.62Z" fill="#FFB41E"/>
<path d="M228.81 270.1C227.591 270.101 226.4 269.74 225.387 269.063C224.373 268.386 223.583 267.424 223.117 266.298C222.651 265.172 222.529 263.933 222.767 262.738C223.005 261.543 223.592 260.445 224.454 259.584C225.316 258.723 226.413 258.136 227.608 257.898C228.803 257.661 230.041 257.784 231.167 258.25C232.292 258.716 233.255 259.505 233.932 260.518C234.609 261.531 234.97 262.722 234.97 263.94M223.46 228C220.46 227.13 215.46 227.14 211.02 231.94C208.771 234.381 207.123 237.315 206.21 240.506C205.297 243.698 205.143 247.058 205.76 250.32C205.796 250.496 205.866 250.662 205.966 250.811C206.066 250.959 206.195 251.086 206.345 251.184C206.494 251.283 206.662 251.351 206.838 251.385C207.014 251.418 207.195 251.417 207.37 251.38L210.49 250.72C210.813 250.655 211.101 250.474 211.298 250.21C211.496 249.946 211.589 249.618 211.56 249.29C211.22 245.39 210.81 233.16 222.08 232.48C222.08 232.48 227.02 233.68 225.97 231.58C225.09 229.81 220.51 231.58 222.3 233.08C226.53 236.57 227.51 243.65 227.16 249.7C227.03 251.9 233.08 252.47 233.16 250.55C233.392 246.707 233.116 242.851 232.34 239.08C231.89 236.677 230.91 234.405 229.47 232.43L223.46 228ZM211.37 258.5C210.743 258.717 210.169 259.062 209.682 259.512C209.196 259.963 208.809 260.51 208.545 261.118C208.281 261.727 208.146 262.383 208.148 263.046C208.151 263.709 208.291 264.364 208.56 264.97C209.041 265.982 209.854 266.797 210.865 267.282C211.875 267.766 213.02 267.889 214.11 267.63L211.37 258.5Z" stroke="#2B1B9E" stroke-width="1.5" stroke-linecap="round" stroke-linejoin="round"/>
<path d="M214.43 258.13C214.43 258.13 216.75 257.86 218.22 260.94M217.48 271C216.072 271.86 214.463 272.333 212.813 272.371C211.164 272.409 209.534 272.011 208.088 271.217C206.643 270.423 205.432 269.261 204.579 267.85C203.726 266.438 203.26 264.826 203.229 263.177C203.206 261.943 203.427 260.717 203.879 259.568C204.331 258.42 205.006 257.372 205.864 256.485C206.722 255.599 207.748 254.89 208.881 254.401C210.014 253.912 211.232 253.651 212.466 253.634C214.115 253.611 215.742 254.023 217.18 254.83L217.48 271ZM228.22 251.34L227.89 253.7L228.22 251.34ZM232.08 251.72C232.137 252.654 232.035 253.59 231.78 254.49L232.08 251.72ZM207.2 251.58C207.2 251.58 207.65 254.19 208.13 254.45L207.2 251.58ZM210.82 250.74C210.82 250.85 210.82 253.16 211.67 253.58L210.82 250.74Z" stroke="#2B1B9E" stroke-width="1.5" stroke-linecap="round" stroke-linejoin="round"/>
<path d="M199 334.75H141.15C140.76 334.749 140.387 334.594 140.111 334.319C139.836 334.043 139.681 333.67 139.68 333.28V268.28C139.672 267.868 139.816 267.467 140.086 267.155C140.356 266.843 140.731 266.642 141.14 266.59L198.96 266.81C199.35 266.811 199.723 266.966 199.999 267.241C200.274 267.517 200.429 267.89 200.43 268.28V333.28C200.429 333.663 200.28 334.03 200.013 334.305C199.746 334.579 199.383 334.739 199 334.75Z" fill="#EFF8FE"/>
<path d="M186.24 285.27C185.15 283.88 183.53 283.55 181.76 283.4C180.53 283.3 164.94 283.26 163.04 283.25C161.886 283.243 160.762 283.623 159.85 284.33C156.77 287.17 147.05 296.58 147.05 296.58C147.05 296.58 152.64 302.28 156.43 305.52C156.84 304.92 158.04 303.72 159.22 302.39C159.31 308.75 159.31 315.45 159.51 321.64C159.519 321.92 159.636 322.185 159.834 322.382C160.033 322.579 160.3 322.693 160.58 322.7C165.34 322.82 178.24 322.62 182.58 322.7C182.87 322.703 183.149 322.591 183.357 322.389C183.565 322.186 183.685 321.91 183.69 321.62C183.75 318.16 183.69 307.77 183.88 301.01C186.49 303.44 185.82 303.18 188.22 305.54C190.57 303.68 194.17 299.64 196.71 297.24C194.26 294.47 188.84 288.6 186.24 285.27Z" fill="white"/>
<path d="M164.89 302.9C167.57 299.49 169.5 296.66 172.8 293.61C174.04 292.47 174.8 292.61 175 293.49M175 302.64C175.6 303.76 172.86 313.32 170.53 311.53C168.81 310.2 173.42 304.04 176.35 307.27L175 302.64ZM175 293.49C175.26 294.54 173.81 296.78 172.64 298.49C171.47 300.2 168.81 303.85 170.12 304.3C171.12 304.65 174.12 301.04 175.02 302.6L175 293.49Z" stroke="#9747FF" stroke-width="2" stroke-linecap="round" stroke-linejoin="round"/>
<path d="M178.47 283.46C178.47 283.46 164.76 283.4 162.86 283.38C161.27 283.479 159.769 284.146 158.63 285.26L146.86 296.65C146.86 296.65 152.45 302.35 156.24 305.58C157.13 304.27 161.95 299.99 161.66 297.95C161.651 297.78 161.605 297.615 161.526 297.464C161.448 297.314 161.339 297.181 161.205 297.076C161.072 296.971 160.918 296.895 160.754 296.852C160.589 296.81 160.418 296.802 160.25 296.83C160.017 296.923 159.806 297.066 159.633 297.25C159.461 297.433 159.33 297.651 159.25 297.89C158.948 299.051 158.86 300.257 158.99 301.45C159.1 308.1 159.09 315.19 159.3 321.71C159.31 321.99 159.426 322.255 159.625 322.452C159.824 322.649 160.09 322.763 160.37 322.77C165.13 322.89 178.03 322.68 182.37 322.77C182.66 322.773 182.94 322.661 183.148 322.459C183.356 322.256 183.475 321.98 183.48 321.69C183.54 318.07 183.48 306.87 183.7 300.17C183.7 298.9 183.1 295.97 181.53 296.86C180.53 297.42 181.36 298.99 182.2 299.74C186.57 303.66 185.2 302.89 188.01 305.61C190.35 303.76 193.95 299.71 196.5 297.31C194.06 294.56 188.64 288.69 186.04 285.37C184.95 283.97 183.27 283.71 181.5 283.56C180.26 283.46 178.5 283.56 178.24 283.5C178.088 284.936 177.381 286.257 176.269 287.179C175.158 288.102 173.73 288.554 172.29 288.44C171.469 288.478 170.65 288.335 169.89 288.023C169.13 287.71 168.447 287.235 167.89 286.63" stroke="#2B1B9E" stroke-width="1.5" stroke-linecap="round" stroke-linejoin="round"/>
<path d="M145.82 273.03C146.209 273.03 146.583 272.875 146.859 272.599C147.135 272.324 147.29 271.95 147.29 271.56C147.29 271.17 147.135 270.796 146.859 270.521C146.583 270.245 146.209 270.09 145.82 270.09C145.43 270.09 145.056 270.245 144.78 270.521C144.504 270.796 144.35 271.17 144.35 271.56C144.35 271.95 144.504 272.324 144.78 272.599C145.056 272.875 145.43 273.03 145.82 273.03ZM151.69 273.03C152.079 273.03 152.453 272.875 152.729 272.599C153.005 272.324 153.16 271.95 153.16 271.56C153.16 271.17 153.005 270.796 152.729 270.521C152.453 270.245 152.079 270.09 151.69 270.09C151.3 270.09 150.926 270.245 150.65 270.521C150.374 270.796 150.22 271.17 150.22 271.56C150.22 271.95 150.374 272.324 150.65 272.599C150.926 272.875 151.3 273.03 151.69 273.03Z" fill="#2B1B9E"/>
<path d="M178.88 319.28H180.79M140.37 273.34C140.49 274.99 140.53 301.16 140.53 301.16V333.28C140.529 333.473 140.566 333.664 140.638 333.842C140.711 334.02 140.818 334.182 140.954 334.319C141.09 334.455 141.251 334.564 141.429 334.638C141.607 334.712 141.798 334.75 141.99 334.75H199.81C200.003 334.75 200.193 334.712 200.371 334.638C200.549 334.564 200.711 334.456 200.846 334.319C200.982 334.182 201.089 334.02 201.162 333.842C201.235 333.664 201.272 333.473 201.27 333.28V268.28C201.272 267.99 201.187 267.706 201.027 267.464C200.867 267.223 200.639 267.034 200.371 266.922C200.193 266.848 200.003 266.81 199.81 266.81H194.55C190.29 266.81 188.82 273.66 191.44 273.66C193.05 273.66 193.66 266.8 180.25 266.8H146.16L140.37 273.34ZM162.89 319.28H176.49H162.89Z" stroke="#2B1B9E" stroke-width="1.5" stroke-linecap="round" stroke-linejoin="round"/>
<path d="M95.1603 432.26C95.1952 430.963 95.0161 429.669 94.6303 428.43C93.8603 427 91.3203 421.84 91.3203 420.43C91.4759 418.837 91.8113 417.267 92.3203 415.75C92.4803 415.32 92.0703 417.64 95.7903 417.88C99.0703 418.09 99.4103 417.79 100.22 417.13C101.03 416.47 102.22 415.08 102.99 415.75C103.76 416.42 102.99 418.02 102.99 418.02C102.99 418.02 103.41 418.36 103.41 419.48C103.41 420.6 103.53 421.73 104.25 422.08C105.53 422.7 104.82 423.08 104.97 423.9C105.12 424.72 103.67 428.69 102.72 430C102.29 430.59 101.84 431 99.5103 431.58C98.0874 431.955 96.6298 432.183 95.1603 432.26ZM121.2 417.28C121.2 417.28 119.73 415.88 118.98 415.28C118.071 414.567 117.379 413.615 116.98 412.53C116.752 411.244 116.438 409.974 116.04 408.73C115.53 407.932 114.947 407.182 114.3 406.49C114.02 406.18 113.39 405.25 113.85 404.97C114.561 404.808 115.308 404.93 115.93 405.31C116.23 405.57 117.21 406.2 117.21 406.2C117.21 406.2 117.68 406.09 117.34 405.31C116.947 404.477 116.313 403.78 115.52 403.31C114.623 402.883 113.885 402.183 113.41 401.31C113.208 400.799 113.054 400.27 112.95 399.73C113.992 400.038 114.998 400.457 115.95 400.98C117.516 401.887 118.93 403.034 120.14 404.38C121.015 405.627 121.746 406.969 122.32 408.38C122.784 409.664 123.438 410.871 124.26 411.96C124.704 412.371 125.116 412.815 125.49 413.29C125.766 413.627 125.936 414.037 125.98 414.47C125.98 414.47 125.67 415.59 124.81 415.78C123.95 415.97 122.44 417.31 121.81 417.24L121.2 417.28ZM125.09 386C124.714 386.596 124.38 387.217 124.09 387.86C123.534 389.247 123.282 390.737 123.35 392.23C123.48 394.23 123.71 395.97 123.7 396.79C123.716 397.877 123.498 398.955 123.06 399.95C122.59 400.71 122.06 401.22 122.5 401.78C122.94 402.34 124.13 402.57 124.7 403.31C125.355 404.256 125.874 405.289 126.24 406.38C126.37 406.909 126.617 407.402 126.963 407.823C127.31 408.244 127.746 408.581 128.24 408.81C129.398 409.291 130.649 409.507 131.9 409.44C133.07 409.21 135.16 408.75 135.16 408.75C135.16 408.75 136.29 412.97 136.36 412.75C138.042 412.232 139.803 412.019 141.56 412.12C142.95 412.38 149.16 413.06 149.87 413.12C150.58 413.18 153.63 413.07 153.94 412.76C154.25 412.45 153.41 411.01 153.41 411.01L150 402.27C150 402.27 149.87 401.42 149.32 401.5C148.77 401.58 147.86 401.9 147.32 401.17L144.48 399.53C145.132 398.384 145.534 397.113 145.66 395.8C145.66 394.2 145.44 392.28 144.08 392.46C143.202 392.514 142.338 392.706 141.52 393.03C140.55 393.169 139.56 393.012 138.68 392.58C138.03 392.026 137.418 391.428 136.85 390.79C136.85 390.79 134.22 390.22 133.56 389.49C132.948 388.755 132.38 387.983 131.86 387.18C131.86 387.18 130.78 387.95 128.05 387.4C127.016 387.043 126.023 386.573 125.09 386Z" fill="white"/>
<path d="M109.63 417L103.39 417.55V420.81C103.39 420.81 103.39 422.06 104.39 422.24L105.12 422.39V432.3L107.99 435.67V420.89C108.71 420.21 109.65 419.48 109.65 419.48L109.63 417Z" fill="white"/>
<path d="M103.29 417.5L102.97 415.78H101.76L99.3798 417.78L93.7698 417.54C92.7698 417.54 92.2998 416.8 92.2998 415.79L92.4598 404.71C92.5006 404.124 92.7199 403.565 93.0882 403.107C93.4565 402.649 93.9561 402.315 94.5198 402.15L99.9098 401.96C100.31 401.8 100.56 401.21 100.74 400.81L102 399C102.061 398.828 102.172 398.678 102.317 398.568C102.463 398.458 102.638 398.392 102.82 398.38H107.05C107.36 398.38 107.65 398.45 107.87 399.04L108.99 401.21L113.12 401.28C114.239 402.337 115.443 403.301 116.72 404.16C116.978 404.385 117.178 404.669 117.303 404.987C117.428 405.306 117.475 405.65 117.44 405.99L114.26 404.99L113.85 405.84L116.26 409.31L115.93 413.53C115.93 414.53 116.12 416.45 115.11 416.45L105.2 417.31L103.29 417.5Z" fill="#F5F4FE"/>
<path d="M109.28 413.67L100.21 414.47L100.33 405.33L109.17 404.88L109.28 413.67Z" fill="white"/>
<path d="M100.44 401.94H94.5098L95.7298 399.74L98.7898 399.8C98.8907 399.803 98.9894 399.831 99.0767 399.881C99.1641 399.932 99.2373 400.004 99.2898 400.09L100.44 401.94Z" fill="#F5F4FE"/>
<path d="M88.13 405.68H92.56V414.27H88.13C87.0336 414.268 85.9828 413.831 85.2085 413.054C84.4341 412.278 83.9995 411.226 84 410.13V409.81C84.0026 408.715 84.4386 407.667 85.2126 406.893C85.9865 406.119 87.0355 405.683 88.13 405.68ZM164.6 381.47C164.844 381.093 165.009 380.669 165.084 380.226C165.159 379.783 165.143 379.329 165.038 378.892C164.932 378.455 164.739 378.045 164.469 377.685C164.199 377.325 163.86 377.024 163.47 376.8C164.33 375.56 164.47 370.94 160.27 370.57V370.38C160.271 369.755 160.095 369.142 159.762 368.612C159.429 368.083 158.953 367.659 158.389 367.389C157.825 367.12 157.196 367.016 156.575 367.088C155.954 367.161 155.367 367.408 154.88 367.8C153.548 366.793 151.877 366.345 150.22 366.55C148.715 366.727 147.319 367.423 146.271 368.518C145.224 369.613 144.59 371.039 144.48 372.55C144.133 372.664 143.798 372.811 143.48 372.99C143.084 372.034 142.4 371.224 141.525 370.673C140.649 370.121 139.624 369.854 138.59 369.91C135.95 369.91 133.08 371.26 132.2 373.6C131.307 372.827 130.21 372.327 129.04 372.16C127.871 371.993 126.678 372.166 125.604 372.659C124.53 373.151 123.62 373.942 122.983 374.936C122.345 375.931 122.008 377.089 122.01 378.27V378.62C120.731 379.047 119.628 379.882 118.869 380.996C118.11 382.111 117.738 383.444 117.81 384.79C117.853 385.733 118.12 386.652 118.59 387.47C118.344 387.924 118.217 388.433 118.22 388.95C118.219 389.789 118.551 390.594 119.143 391.188C119.436 391.482 119.785 391.715 120.169 391.873C120.553 392.031 120.965 392.112 121.38 392.11C122.38 392.11 123.24 392.11 123.38 391.22C123.729 389.342 124.231 387.496 124.88 385.7C124.88 385.7 126.18 387.36 129.54 387.63C130.406 387.682 131.266 387.462 132 387C132.321 387.983 132.945 388.839 133.782 389.446C134.619 390.053 135.626 390.38 136.66 390.38C137.124 391.35 137.894 392.14 138.852 392.628C139.81 393.117 140.903 393.275 141.96 393.08C142.239 392.815 142.581 392.625 142.954 392.529C143.326 392.433 143.717 392.433 144.09 392.53C144.559 392.698 144.966 393.004 145.258 393.407C145.551 393.81 145.715 394.292 145.73 394.79C145.728 396.435 145.315 398.054 144.53 399.5C144.53 399.5 146.75 401.18 148.23 401.18C149.532 401.18 150.781 400.663 151.702 399.742C152.623 398.821 153.14 397.572 153.14 396.27C153.15 396.12 153.15 395.97 153.14 395.82C154.004 395.436 154.739 394.809 155.253 394.015C155.768 393.222 156.041 392.296 156.04 391.35V390.92C156.646 391.28 157.336 391.473 158.04 391.48C159.071 391.48 160.064 391.089 160.817 390.386C161.571 389.682 162.03 388.719 162.1 387.69C163.01 387.489 163.824 386.983 164.406 386.255C164.989 385.527 165.304 384.622 165.3 383.69C165.292 382.897 165.048 382.124 164.6 381.47Z" fill="#2374E1"/>
<path d="M125.71 397.42C125.427 396.736 125.398 395.973 125.63 395.27C125.673 395.211 125.729 395.162 125.794 395.129C125.86 395.095 125.932 395.078 126.005 395.077C126.078 395.077 126.151 395.094 126.216 395.128C126.281 395.161 126.338 395.21 126.38 395.27C126.588 395.565 126.712 395.911 126.74 396.27C126.866 396.715 126.866 397.186 126.74 397.63C126.703 397.693 126.652 397.748 126.592 397.789C126.531 397.83 126.462 397.858 126.39 397.87C126.243 397.881 126.096 397.843 125.973 397.762C125.849 397.68 125.757 397.56 125.71 397.42Z" fill="#2B1B9E"/>
<path d="M135.18 408.75C135.671 410.156 136.056 411.597 136.33 413.06M124.54 387C123.08 389.24 123.24 392.12 123.54 394.78C123.74 396.57 123.94 398.52 122.99 400.06C122.664 400.438 122.458 400.904 122.4 401.4C122.457 401.658 122.578 401.897 122.753 402.095C122.928 402.293 123.151 402.443 123.4 402.53C123.881 402.717 124.332 402.973 124.74 403.29C125.263 403.858 125.64 404.544 125.84 405.29C126.054 406.106 126.45 406.864 126.997 407.506C127.544 408.148 128.229 408.659 129 409C130.805 409.609 132.772 409.527 134.52 408.77C136.28 408.15 137.95 406.36 139.27 404.65L124.54 387Z" stroke="#2B1B9E" stroke-width="1.5" stroke-linecap="round" stroke-linejoin="round"/>
<path d="M95.6603 432.2C95.5251 432.227 95.3968 432.281 95.2835 432.36C95.1702 432.438 95.0744 432.539 95.0021 432.657C94.9298 432.774 94.8825 432.905 94.8633 433.042C94.8441 433.178 94.8533 433.317 94.8903 433.45C96.4403 438.45 103.44 459.27 113.36 462.6C116.457 463.721 119.836 463.8 122.982 462.826C126.128 461.851 128.87 459.876 130.79 457.2V464.44L130.57 469.58C130.57 469.58 139.9 471 156.23 464.67C169.45 459.54 173.82 449.5 173.82 449.5L173.4 446C172.655 441.448 171.616 436.948 170.29 432.53C169.36 429.76 165.5 421.87 165.5 421.87C165.5 421.87 170.45 415.5 165.85 410.36C159.97 403.8 151.46 406.36 151.46 406.36L154.06 412.44C154.06 412.44 153.43 413.2 151.15 413.12C146.31 412.97 142.15 411.01 136.67 412.54C129.19 414.65 129.22 421.15 129.22 421.15L129.9 422.08C129.9 422.08 116.67 444.08 116.3 444.22C115.93 444.36 103.24 430.3 103.24 430.3L100.29 431.59C99.4803 431.94 96.9303 432 95.6603 432.2Z" fill="#FFEEEE"/>
<path d="M126.6 429.76C126.27 429.47 119.72 417.76 119.72 417.76C121.069 417.516 122.385 417.114 123.64 416.56C124.556 415.946 125.381 415.205 126.09 414.36L131.61 420.84L133.27 428.37L126.6 429.76Z" fill="#FFEEEE"/>
<path d="M129.48 404.31C129.107 404.81 128.577 405.17 127.975 405.333C127.373 405.496 126.734 405.453 126.16 405.21M141.32 394.26C142.14 392.59 143.38 392.07 144.6 392.74C145.82 393.41 145.98 394.74 145.76 396.13C145.65 396.83 144.7 401.73 141.88 399.25L141.32 394.26ZM124.08 382.75C124.057 383.559 124.261 384.357 124.67 385.055C125.078 385.754 125.674 386.323 126.39 386.7C128.09 387.65 133.08 388.54 133.39 385C133.47 384.08 132.45 383.65 132 385.24C131.834 386.057 131.911 386.904 132.222 387.678C132.533 388.451 133.064 389.116 133.75 389.59C135.08 390.45 136.97 390.88 138.01 389.68C138.59 389.02 138.62 388.52 138.23 388.22C138.03 388.06 137.14 387.96 136.8 389.33C136.55 390.38 136.8 391.96 139.74 392.92L124.08 382.75ZM136.91 370.12C140.91 368.98 143.56 371.87 143.68 373.49C143.68 372.92 148.02 371.1 150.78 374.01C151.398 374.686 151.809 375.524 151.965 376.426C152.121 377.328 152.015 378.256 151.66 379.1C152.12 378.33 155.03 378.38 155.17 380.85C155.132 381.756 154.802 382.626 154.23 383.33C155.36 383.47 156.52 385.27 155 388.21L136.91 370.12ZM152.85 395.29C153.44 397.38 151.85 399.7 150.19 401.1C149.671 401.444 149.062 401.628 148.44 401.63C148.151 401.662 147.861 401.584 147.628 401.412C147.394 401.24 147.234 400.985 147.18 400.7C147.188 400.528 147.236 400.36 147.321 400.21C147.405 400.059 147.523 399.93 147.666 399.833C147.808 399.737 147.971 399.674 148.142 399.651C148.313 399.628 148.487 399.645 148.65 399.7C148.966 399.865 149.236 400.107 149.434 400.405C149.631 400.702 149.75 401.044 149.78 401.4C149.9 402.08 152.32 409.63 153.96 411.96L152.85 395.29ZM124.87 393.33C125.153 393.118 125.502 393.013 125.855 393.033C126.208 393.053 126.543 393.197 126.8 393.44L124.87 393.33Z" stroke="#2B1B9E" stroke-width="1.5" stroke-linecap="round" stroke-linejoin="round"/>
<path d="M155.8 411.75C154.545 412.479 153.164 412.967 151.73 413.19C148.12 413.43 143.23 411.24 137.11 412.6C135.135 413.044 133.337 414.066 131.945 415.535C130.552 417.004 129.628 418.854 129.29 420.85" stroke="#2B1B9E" stroke-width="1.5" stroke-linecap="round" stroke-linejoin="round"/>
<path d="M95.1601 432.26C99.8601 432.88 105.61 430.56 105.06 428.06C104.998 427.777 104.841 427.525 104.616 427.344C104.39 427.163 104.109 427.064 103.82 427.065C103.531 427.065 103.251 427.163 103.025 427.344C102.8 427.525 102.643 427.778 102.58 428.06C102.49 428.421 102.476 428.797 102.54 429.164C102.604 429.531 102.743 429.88 102.95 430.19C105.95 435.74 113.02 439.37 116.84 444.42C117.84 445.7 116.84 448.19 115.21 447.32C113.58 446.45 115.81 444.04 116.27 443.76C119.85 441.56 125.92 426.36 129.08 423.6M129.33 421.12C134.67 420.87 138.09 421.66 143.27 423.03C149.78 424.76 161.27 426.35 164.93 422.35C171.63 415.09 165.38 403.35 151.4 406.18L129.33 421.12ZM92.4501 414.54C92.3601 416.7 91.1001 418.96 91.3501 421C91.5251 422.17 91.8861 423.304 92.4201 424.36C93.1901 426.04 95.2701 428.88 95.3401 431.81L92.4501 414.54ZM95.2301 420.34C96.2993 419.815 97.3057 419.171 98.2301 418.42C100.23 416.91 101.78 415.52 102.55 415.81C104.55 416.59 100.41 420.94 100.55 422.51C100.69 424.08 101.05 426.71 99.7701 427.64L95.2301 420.34Z" stroke="#2B1B9E" stroke-width="1.5" stroke-linecap="round" stroke-linejoin="round"/>
<path d="M95.5603 434.88C97.0332 439.549 98.8516 444.101 101 448.5C102.399 451.704 104.207 454.712 106.38 457.45C108.577 460.197 111.565 462.201 114.94 463.19C120.51 464.62 126.68 462.09 130.29 457.61C131.432 456.116 132.231 454.388 132.63 452.55C133 450.82 133.45 447.26 131.83 447.84C130.44 448.35 130.83 460.2 130.83 463.75C130.83 464.65 130.83 471.9 130.02 472.28L95.5603 434.88ZM166.48 423.81C170.6 430.94 171.74 438.44 173.3 446.26L166.48 423.81ZM98.0603 405.29V415.75V405.29ZM103.29 417.5L114.61 416.5C114.989 416.474 115.344 416.304 115.603 416.026C115.861 415.747 116.003 415.38 116 415L103.29 417.5ZM109.41 407.5L109.28 413.67L100.21 414.47L100.24 405.24L109.17 404.88L109.41 407.5ZM92.4203 414.18H87.4203C86.6301 414.121 85.8831 413.797 85.3003 413.26C84.5014 412.468 84.0173 411.413 83.9382 410.291C83.8592 409.169 84.1904 408.056 84.8703 407.16C85.1679 406.754 85.5498 406.416 85.99 406.171C86.4301 405.926 86.918 405.779 87.4203 405.74H90.9503L92.4203 414.18ZM113.27 412.49C113.769 412.49 114.247 412.292 114.6 411.939C114.952 411.587 115.15 411.109 115.15 410.61C115.15 410.111 114.952 409.633 114.6 409.281C114.247 408.928 113.769 408.73 113.27 408.73C112.772 408.73 112.293 408.928 111.941 409.281C111.588 409.633 111.39 410.111 111.39 410.61C111.39 411.109 111.588 411.587 111.941 411.939C112.293 412.292 112.772 412.49 113.27 412.49V412.49Z" stroke="#2B1B9E" stroke-width="1.5" stroke-linecap="round" stroke-linejoin="round"/>
<path d="M117.48 406C117.466 405.626 117.369 405.26 117.196 404.927C117.023 404.595 116.779 404.306 116.48 404.08C115.98 403.67 115.39 403.24 114.85 402.88C114.054 402.34 113.468 401.542 113.19 400.62C113.168 400.541 113.162 400.459 113.173 400.377C113.185 400.296 113.213 400.218 113.256 400.149C113.299 400.079 113.357 400.019 113.424 399.973C113.492 399.927 113.569 399.896 113.649 399.881C113.757 399.861 113.868 399.871 113.97 399.91C114.802 400.304 115.587 400.791 116.31 401.36C117.428 402.116 118.503 402.934 119.53 403.81C120.76 405.006 121.688 406.476 122.24 408.1C122.459 408.816 122.723 409.517 123.03 410.2C123.522 411.009 124.063 411.787 124.65 412.53M108.72 400.62L107.91 399.06C107.794 398.84 107.62 398.655 107.407 398.526C107.194 398.398 106.949 398.33 106.7 398.33H103.47C103.19 398.317 102.91 398.371 102.655 398.488C102.399 398.604 102.175 398.78 102 399L99.9103 402C97.2603 402.08 96.4103 402.08 94.9803 402.13C94.5856 402.151 94.2005 402.26 93.8542 402.451C93.5078 402.641 93.2091 402.908 92.9803 403.23V403.29C92.6885 403.721 92.5318 404.229 92.5303 404.75V416.13C92.5279 416.464 92.625 416.79 92.8094 417.069C92.9938 417.347 93.257 417.563 93.5653 417.691C93.7693 417.776 93.9893 417.82 94.2103 417.82H96.4203L108.72 400.62ZM121.2 417.07C121.007 416.835 120.8 416.611 120.58 416.4C119.83 415.71 118.81 415.4 118.1 414.62C117.202 413.725 116.589 412.584 116.34 411.34C116.11 410.09 116.19 408.92 115.34 407.97C114.859 407.421 114.431 406.829 114.06 406.2C113.937 405.999 113.881 405.765 113.9 405.53C113.911 405.414 113.955 405.304 114.025 405.212C114.096 405.12 114.191 405.05 114.3 405.01C114.435 404.982 114.575 404.982 114.71 405.01C116.319 405.456 117.764 406.359 118.87 407.61L121.2 417.07Z" stroke="#2B1B9E" stroke-width="1.5" stroke-linecap="round" stroke-linejoin="round"/>
<path d="M95.0007 401.46L95.4807 400.23C95.5582 400.048 95.6879 399.893 95.8534 399.784C96.0189 399.676 96.2128 399.619 96.4107 399.62H98.7907M125.521 428.08C124.485 426.134 123.374 424.229 122.191 422.37C121.164 420.925 120.324 419.356 119.691 417.7C120.774 417.714 121.843 417.456 122.801 416.95C123.984 416.562 125.027 415.835 125.801 414.86C126.311 414.08 127.051 415.43 127.661 416.06C128.391 416.811 129.022 417.651 129.541 418.56L125.521 428.08ZM87.5607 412.38C87.1841 412.101 86.8782 411.738 86.6675 411.319C86.4568 410.901 86.3473 410.439 86.3477 409.97C86.3475 409.501 86.4572 409.039 86.6678 408.621C86.8785 408.202 87.1843 407.839 87.5607 407.56V412.38ZM110.771 401.34L113.161 401.3L110.771 401.34Z" stroke="#2B1B9E" stroke-width="1.5" stroke-linecap="round" stroke-linejoin="round"/>
<path d="M106.54 403L103.65 403.06C103.577 403.063 103.505 403.052 103.436 403.026C103.368 403 103.306 402.961 103.254 402.91C103.201 402.86 103.16 402.799 103.132 402.732C103.103 402.665 103.089 402.593 103.09 402.52V401.3C103.089 401.156 103.146 401.017 103.247 400.914C103.348 400.811 103.486 400.752 103.63 400.75H106.53C106.674 400.753 106.811 400.813 106.911 400.915C107.012 401.018 107.069 401.156 107.07 401.3V402.45C107.072 402.593 107.017 402.731 106.918 402.834C106.819 402.937 106.683 402.997 106.54 403Z" fill="#2374E1"/>
<path d="M111.31 406.38C111.448 406.38 111.58 406.325 111.678 406.228C111.775 406.13 111.83 405.998 111.83 405.86C111.83 405.722 111.775 405.59 111.678 405.492C111.58 405.395 111.448 405.34 111.31 405.34C111.172 405.34 111.04 405.395 110.942 405.492C110.845 405.59 110.79 405.722 110.79 405.86C110.79 405.998 110.845 406.13 110.942 406.228C111.04 406.325 111.172 406.38 111.31 406.38ZM111.31 408.2C111.448 408.2 111.58 408.145 111.678 408.048C111.775 407.95 111.83 407.818 111.83 407.68C111.83 407.542 111.775 407.41 111.678 407.312C111.58 407.215 111.448 407.16 111.31 407.16C111.172 407.16 111.04 407.215 110.942 407.312C110.845 407.41 110.79 407.542 110.79 407.68C110.79 407.818 110.845 407.95 110.942 408.048C111.04 408.145 111.172 408.2 111.31 408.2Z" fill="#2B1B9E"/>
<path d="M108.43 420.83V433.16M103.39 417.5V420.64C103.393 421.093 103.574 421.526 103.894 421.846C104.214 422.166 104.647 422.347 105.1 422.35H105.63C106.037 422.348 106.43 422.203 106.74 421.94L109.63 419.48V417.16L103.39 417.5ZM105.1 422.35V424.72V422.35Z" stroke="#2B1B9E" stroke-width="1.5" stroke-linecap="round" stroke-linejoin="round"/>
<path d="M107.6 412L102.05 412.33C101.967 412.336 101.884 412.314 101.815 412.267C101.745 412.22 101.694 412.152 101.668 412.073C101.65 412.021 101.644 411.965 101.65 411.91L101.88 409.91C101.88 409.03 102.43 408.74 103.32 408.7L106.32 408.54C106.51 408.525 106.701 408.549 106.881 408.61C107.062 408.671 107.228 408.768 107.37 408.895C107.512 409.022 107.627 409.177 107.708 409.35C107.789 409.522 107.833 409.709 107.84 409.9C107.9 410.31 108.06 411.67 108.06 411.67C108.12 411.85 107.81 412 107.6 412Z" fill="#FFB41E"/>
<path d="M106.09 409C106.143 408.643 106.09 408.278 105.937 407.95C105.784 407.623 105.538 407.348 105.23 407.16C104.938 407.024 104.608 406.997 104.298 407.083C103.988 407.169 103.719 407.363 103.54 407.63C103.384 407.862 103.28 408.126 103.235 408.402C103.19 408.678 103.205 408.96 103.28 409.23" stroke="#2B1B9E" stroke-width="1.5" stroke-linecap="round" stroke-linejoin="round"/>
<path d="M98.0596 458.16C100.22 458.35 98.8396 462.54 109.06 466.94C148.6 483.94 174.66 452.33 174.66 452.33" stroke="#231F20" stroke-width="5" stroke-linecap="round" stroke-linejoin="round"/>
<path d="M293.21 106.98C312.866 106.98 328.8 90.93 328.8 71.13C328.8 51.33 312.866 35.28 293.21 35.28C273.554 35.28 257.62 51.33 257.62 71.13C257.62 90.93 273.554 106.98 293.21 106.98Z" fill="#2374E1"/>
<path d="M323.8 71.41C323.8 88.1 309.26 101.5 292.93 101.5C276.6 101.5 263 87.35 263 70.65C263.017 62.6986 266.183 55.0777 271.805 49.4552C277.428 43.8327 285.049 40.6666 293 40.65C309.32 40.62 323.8 54.72 323.8 71.41Z" fill="#EFF8FE"/>
<path d="M289.73 64C290.02 68.36 289.82 73.39 290.12 77.75M323.8 71.41C323.8 88.1 309.26 101.5 292.93 101.5C276.6 101.5 263 87.35 263 70.65C262.978 66.4556 263.839 62.3036 265.528 58.4642C267.217 54.6248 269.695 51.1841 272.802 48.3662C275.909 45.5484 279.575 43.4165 283.56 42.1094C287.546 40.8023 291.762 40.3494 295.934 40.78C301.514 41.3558 306.818 43.4905 311.24 46.94L323.8 71.41ZM292.56 43.64L292.62 46.32L292.56 43.64ZM292.56 96.33L292.62 99L292.56 96.33ZM266.1 74.08L268.56 74.01L266.1 74.08ZM318.18 74.08L320.64 74.01L318.18 74.08Z" stroke="#2B1B9E" stroke-width="2.05" stroke-linecap="round" stroke-linejoin="round"/>
<path d="M304.53 62.48C304.53 62.48 304.72 64.71 304.69 64.97M285.29 63.35C284.77 64.47 283.45 69.19 282.53 71.06L289.81 70.98L285.29 63.35ZM300 63.3C298.064 63.1504 296.117 63.2007 294.19 63.45C294.19 63.45 294.19 70.23 294.32 70.23C295.518 70.143 296.723 70.1899 297.91 70.37C301.66 71.37 301.53 75.29 298.91 76.91C297.64 77.7 294.91 77.36 293.54 76.68L300 63.3Z" stroke="#2B1B9E" stroke-width="2.05" stroke-linecap="round" stroke-linejoin="round"/>
</svg>
