<svg xmlns="http://www.w3.org/2000/svg" viewBox="0 0 660.34 166.93"><defs><style>.cls-1{fill:#2374e1;}</style></defs><g id="Layer_2" data-name="Layer 2"><g id="Layer_1-2" data-name="Layer 1"><path class="cls-1" d="M476.68,121.12l-1.22,1.45a5.49,5.49,0,0,1-7.72.65,3.38,3.38,0,0,0-5.36,1.47q-4,11.37-7.9,22.75a1.48,1.48,0,0,1-.92,1l-20.88,9.1q-6.31,2.78-12.62,5.55a1.51,1.51,0,0,1-.74.19c1.79-2.12,3.58-4.25,5.38-6.36,2-2.34,4-4.67,5.95-7l7.5-8.88a7.73,7.73,0,0,0,.62-.77,1.63,1.63,0,0,1,1.69-.8,4.13,4.13,0,0,0,4-2.06,4.43,4.43,0,0,0-.15-4.71,4.49,4.49,0,0,0-5.82-1.93,4.39,4.39,0,0,0-2.17,5.53,1,1,0,0,1-.21,1.15c-6.56,7.73-13.1,15.47-19.76,23.35.07-.39.1-.62.16-.84q2.91-11.83,5.81-23.66c1-3.93,1.93-7.85,2.88-11.8a1.53,1.53,0,0,1,.8-1.09q10.48-5.81,21-11.67c2.35-1.31,2.59-3.81.54-5.54l-.1-.08a5.48,5.48,0,0,1-.66-7.72L448,97a6.8,6.8,0,0,1,8.83-1.38,62,62,0,0,0-71-73.32c-33.91,5.65-57,38.56-50.86,72.38A62.14,62.14,0,0,0,384,144.35a2.36,2.36,0,0,0,2.81-2.31V76q0-11.79-.56-14.18a5.29,5.29,0,0,0-3.11-3.6Q380.61,57,371.82,57a2.5,2.5,0,0,1-2.5-2.51V47.15a2.52,2.52,0,0,1,1.92-2.44q16.29-4,25.26-14.91a2.51,2.51,0,0,1,1.93-.91h11.21a2.51,2.51,0,0,1,2.5,2.52v131.8a2.5,2.5,0,0,1-.75,1.81,2.53,2.53,0,0,1-1.82.76,1.06,1.06,0,0,1-.19.06A83.45,83.45,0,1,1,474.9,110.6l0,.1,1,.84A6.8,6.8,0,0,1,476.68,121.12Z"/><path class="cls-1" d="M43.31,74.67H25V62.43c0-3.56-.19-5.79-.59-6.67a2.51,2.51,0,0,0-2.58-1.32c-1.51,0-2.47.53-2.88,1.61s-.61,3.39-.61,7V95.74c0,3.42.21,5.66.61,6.7A2.61,2.61,0,0,0,21.68,104a2.57,2.57,0,0,0,2.67-1.57q.63-1.57.63-7.38V86.21H43.31V89q0,11-1.55,15.52t-6.83,8a23.37,23.37,0,0,1-13,3.44q-8.06,0-13.27-2.91a14.2,14.2,0,0,1-6.92-8.08C.57,101.51,0,96.33,0,89.43V68.84A91.18,91.18,0,0,1,.52,57.42a16.09,16.09,0,0,1,3.11-7.34,17.36,17.36,0,0,1,7.19-5.55,25.89,25.89,0,0,1,10.55-2q8.1,0,13.36,3.13a15,15,0,0,1,6.92,7.8Q43.3,58.12,43.31,68Z"/><path class="cls-1" d="M67.46,44v70.46H49.36V44Z"/><path class="cls-1" d="M91.88,44v9.18H73.77V44Zm0,12.71v57.75H73.77V56.7Z"/><path class="cls-1" d="M116.08,56.7l-.31,5.1A16.49,16.49,0,0,1,121,57.18a12.81,12.81,0,0,1,6.18-1.53,11.6,11.6,0,0,1,7.07,2.2,9.28,9.28,0,0,1,3.73,5.07,44.48,44.48,0,0,1,.74,9.75V97q0,7.88-.94,11.21a9.29,9.29,0,0,1-3.83,5.31,12.07,12.07,0,0,1-7,2,12.33,12.33,0,0,1-6-1.53,16.43,16.43,0,0,1-5.1-4.53v13.24H98.19v-66Zm5,16.8a29.61,29.61,0,0,0-.39-6.49c-.26-.75-1-1.13-2.17-1.13a2.14,2.14,0,0,0-2.25,1.31q-.49,1.31-.5,6.31V97.44c0,3.48.18,5.65.53,6.53a2.16,2.16,0,0,0,2.26,1.3c1.13,0,1.83-.4,2.11-1.2a24.13,24.13,0,0,0,.41-5.81Z"/><path class="cls-1" d="M162.34,56.7l-.3,5.1a16.28,16.28,0,0,1,5.18-4.62,12.75,12.75,0,0,1,6.18-1.53,11.64,11.64,0,0,1,7.07,2.2,9.21,9.21,0,0,1,3.72,5.07,44.48,44.48,0,0,1,.74,9.75V97q0,7.88-.93,11.21a9.33,9.33,0,0,1-3.83,5.31,12.08,12.08,0,0,1-7,2,12.36,12.36,0,0,1-6.05-1.53,16.4,16.4,0,0,1-5.09-4.53v13.24H144.45v-66Zm5,16.8A29.61,29.61,0,0,0,167,67c-.27-.75-1-1.13-2.18-1.13a2.13,2.13,0,0,0-2.24,1.31c-.34.87-.5,3-.5,6.31V97.44c0,3.48.17,5.65.52,6.53a2.16,2.16,0,0,0,2.26,1.3c1.14,0,1.84-.4,2.11-1.2a23.39,23.39,0,0,0,.42-5.81Z"/><path class="cls-1" d="M208.83,44v9.18H190.72V44Zm0,12.71v57.75H190.72V56.7Z"/><path class="cls-1" d="M233,56.7,232.72,62a13.23,13.23,0,0,1,4.68-4.77,12.47,12.47,0,0,1,6.38-1.6,12.07,12.07,0,0,1,7.4,2.14,9.47,9.47,0,0,1,3.69,5.37A48.58,48.58,0,0,1,255.7,74v40.47H238.12v-40a37.35,37.35,0,0,0-.39-7.27c-.27-.87-1-1.31-2.18-1.31a2.17,2.17,0,0,0-2.35,1.5q-.48,1.5-.48,8v39H215.14V56.7Z"/><path class="cls-1" d="M301.71,56.7v44.48a96.63,96.63,0,0,1-.42,11.64,11.48,11.48,0,0,1-2.94,5.57,15.72,15.72,0,0,1-7,4.49A35.49,35.49,0,0,1,280,124.42q-8.4,0-13.49-2.85t-5.27-11.21h17.06c0,2.56.93,3.83,2.79,3.83a2.76,2.76,0,0,0,2.65-1.17c.44-.79.65-2.43.65-4.93v-4.35a16.65,16.65,0,0,1-4.76,3.09,13.45,13.45,0,0,1-5.25,1,14.6,14.6,0,0,1-7.81-1.91,9.84,9.84,0,0,1-4.2-5,27.17,27.17,0,0,1-1.13-8.86v-21q0-8.23,3-11.84t9-3.62a13.29,13.29,0,0,1,6,1.36,14.31,14.31,0,0,1,4.85,4.05l1.26-4.36ZM284.08,72a16.52,16.52,0,0,0-.46-5,1.94,1.94,0,0,0-2-1.09,2.23,2.23,0,0,0-2.16,1.24,12.49,12.49,0,0,0-.63,4.9V91.43a16.26,16.26,0,0,0,.48,5,1.94,1.94,0,0,0,2,1.15,2.16,2.16,0,0,0,2.27-1.39,23.35,23.35,0,0,0,.52-6.31Z"/><path class="cls-1" d="M503.39,47.71h18.46a43,43,0,0,1,11.51,1.18,12.86,12.86,0,0,1,6,3.39,11.64,11.64,0,0,1,2.74,5.38,48,48,0,0,1,.72,9.77v6.13c0,4.5-.47,7.78-1.39,9.84a9.59,9.59,0,0,1-5.12,4.75,24.21,24.21,0,0,1-9.72,1.65h-4.92v28.38H503.39Zm18.33,12.06V77.7c.52,0,1,0,1.35,0,1.68,0,2.85-.41,3.5-1.24s1-2.54,1-5.16V65.56c0-2.41-.38-4-1.13-4.7S524.1,59.77,521.72,59.77Z"/><path class="cls-1" d="M563.33,82.79h-16.5V78.92q0-6.7,1.55-10.34t6.2-6.42q4.65-2.79,12.1-2.78,8.91,0,13.45,3.15a12.35,12.35,0,0,1,5.44,7.75q.91,4.59.91,18.91v29h-17.1V113a10.75,10.75,0,0,1-10.23,6.19,14.84,14.84,0,0,1-8.47-2.59q-3.85-2.58-3.85-11.34v-4.74q0-6.48,2-8.84T559,86.23q8.65-3.39,9.27-4.57a12.26,12.26,0,0,0,.61-4.79c0-3-.23-5-.68-5.9A2.31,2.31,0,0,0,566,69.6c-1.19,0-1.93.39-2.22,1.16a23.51,23.51,0,0,0-.43,6Zm5.57,7.92q-4.23,3.09-4.9,5.18a20.65,20.65,0,0,0-.67,6q0,4.48.58,5.79a2.3,2.3,0,0,0,2.33,1.3,2.17,2.17,0,0,0,2.16-1c.33-.68.5-2.47.5-5.38Z"/><path class="cls-1" d="M611.07,52.72v9.09h4.74V71h-4.74v30.9c0,3.81.2,5.92.59,6.36s2,.65,4.9.65v9.32h-7.1a49.75,49.75,0,0,1-8.57-.51,9.13,9.13,0,0,1-4.53-2.3,7.62,7.62,0,0,1-2.44-4.14,73,73,0,0,1-.48-10.94V71h-3.78V61.81h3.78V52.72Z"/><path class="cls-1" d="M637.27,47.71V63.56a15.9,15.9,0,0,1,4.9-3.14,15,15,0,0,1,5.64-1,13,13,0,0,1,7.85,2.35,9.41,9.41,0,0,1,4,5.41q.72,3.08.72,11.21v39.83H642.76V77.52a25.48,25.48,0,0,0-.5-6.48,2.4,2.4,0,0,0-4.42,0,19.5,19.5,0,0,0-.57,5.88v41.22H619.69V47.71Z"/></g></g></svg>